<?xml version="1.0" encoding="utf-8"?>
<!-- Generator: Adobe Illustrator 27.2.0, SVG Export Plug-In . SVG Version: 6.00 Build 0)  -->
<svg version="1.1" id="圖層_1" xmlns="http://www.w3.org/2000/svg" xmlns:xlink="http://www.w3.org/1999/xlink" x="0px" y="0px"
	 viewBox="0 0 50 50" style="enable-background:new 0 0 50 50;" xml:space="preserve">
<style type="text/css">
	.st0{fill:#040000;}
</style>
<path class="st0" d="M6,28.2h30.2L23.6,40.9c-1.3,1.3-1.3,3.3,0,4.6c0.6,0.6,1.4,0.9,2.3,0.9c0.8,0,1.7-0.3,2.3-0.9l18.1-18.1
	c1.3-1.3,1.3-3.3,0-4.6L28.2,4.6c-1.3-1.3-3.3-1.3-4.6,0s-1.3,3.3,0,4.6l12.6,12.6H6c-1.8,0-3.2,1.4-3.2,3.2
	C2.8,26.8,4.2,28.2,6,28.2z"/>
</svg>
