<?xml version="1.0" encoding="utf-8"?>
<!-- Generator: Adobe Illustrator 27.2.0, SVG Export Plug-In . SVG Version: 6.00 Build 0)  -->
<svg version="1.1" id="圖層_1" xmlns="http://www.w3.org/2000/svg" xmlns:xlink="http://www.w3.org/1999/xlink" x="0px" y="0px"
	 viewBox="0 0 50 50" style="enable-background:new 0 0 50 50;" xml:space="preserve">
<path d="M25,47.2c1.8,0,3.2-1.4,3.2-3.2V13.8l12.6,12.6c1.3,1.3,3.3,1.3,4.6,0c1.3-1.3,1.3-3.3,0-4.6L27.3,3.7
	c-1.3-1.3-3.3-1.3-4.6,0L4.6,21.8c-0.6,0.6-0.9,1.4-0.9,2.3c0,0.8,0.3,1.7,0.9,2.3c1.3,1.3,3.3,1.3,4.6,0l12.6-12.6V44
	C21.8,45.8,23.2,47.2,25,47.2z"/>
</svg>
