<?xml version="1.0" encoding="utf-8"?>
<!-- Generator: Adobe Illustrator 27.2.0, SVG Export Plug-In . SVG Version: 6.00 Build 0)  -->
<svg version="1.1" id="圖層_1" xmlns="http://www.w3.org/2000/svg" xmlns:xlink="http://www.w3.org/1999/xlink" x="0px" y="0px"
	 viewBox="0 0 50 50" style="enable-background:new 0 0 50 50;" xml:space="preserve">
<style type="text/css">
	.st0{fill:#FFFFFF;}
</style>
<path class="st0" d="M47.2,25c0-1.8-1.4-3.2-3.2-3.2H13.8L26.4,9.1c1.3-1.3,1.3-3.3,0-4.6s-3.3-1.3-4.6,0L3.7,22.7
	c-1.3,1.3-1.3,3.3,0,4.6l18.1,18.1c0.6,0.6,1.4,0.9,2.3,0.9c0.8,0,1.7-0.3,2.3-0.9c1.3-1.3,1.3-3.3,0-4.6L13.8,28.2H44
	C45.8,28.2,47.2,26.8,47.2,25z"/>
</svg>
