<?xml version="1.0" encoding="utf-8"?>
<!-- Generator: Adobe Illustrator 27.2.0, SVG Export Plug-In . SVG Version: 6.00 Build 0)  -->
<svg version="1.1" id="圖層_1" xmlns="http://www.w3.org/2000/svg" xmlns:xlink="http://www.w3.org/1999/xlink" x="0px" y="0px"
	 viewBox="0 0 227.5 80.6" style="enable-background:new 0 0 227.5 80.6;" xml:space="preserve">
<style type="text/css">
	.st0{enable-background:new    ;}
	.st1{fill:#444343;}
	.st2{fill:#0092E5;}
	.st3{fill:#00176F;}
	.st4{fill:#79C3EE;}
	.st5{fill:#0054A4;}
	.st6{fill:#53B7EB;}
	.st7{fill:#FFFFFF;}
	.st8{fill:#DF1808;}
</style>
<g id="major_logo" transform="translate(-524 -415)">
	<g id="logo" transform="translate(357 331.066)">
		<g class="st0">
			<path class="st1" d="M174.2,158.7v-7.9h1.6c1.2,0,2,0.1,2.6,0.3c0.8,0.3,1.4,0.7,1.8,1.4c0.4,0.7,0.6,1.5,0.6,2.4
				c0,0.8-0.2,1.5-0.5,2.1c-0.3,0.6-0.8,1-1.3,1.3c-0.5,0.3-1.3,0.4-2.3,0.4H174.2z M174.9,158h0.9c1.1,0,1.8-0.1,2.3-0.2
				c0.6-0.2,1.1-0.5,1.4-1s0.5-1.1,0.5-1.8c0-0.8-0.2-1.4-0.6-2s-0.9-0.9-1.5-1.1c-0.5-0.2-1.3-0.2-2.4-0.2h-0.6V158z"/>
			<path class="st1" d="M182.6,150.5c0.2,0,0.3,0.1,0.4,0.2c0.1,0.1,0.2,0.3,0.2,0.4c0,0.2-0.1,0.3-0.2,0.4
				c-0.1,0.1-0.3,0.2-0.4,0.2c-0.2,0-0.3-0.1-0.4-0.2c-0.1-0.1-0.2-0.3-0.2-0.4c0-0.2,0.1-0.3,0.2-0.4S182.4,150.5,182.6,150.5z
				 M182.2,152.9h0.8v5.8h-0.8V152.9z"/>
			<path class="st1" d="M184.3,152.9h0.8v0.9c0.2-0.3,0.5-0.6,0.7-0.8c0.3-0.2,0.5-0.2,0.8-0.2c0.2,0,0.4,0.1,0.7,0.2l-0.4,0.6
				c-0.2-0.1-0.3-0.1-0.4-0.1c-0.3,0-0.5,0.1-0.7,0.3s-0.4,0.5-0.5,1c-0.1,0.3-0.1,1-0.1,2v2h-0.8V152.9z"/>
			<path class="st1" d="M192.8,156.8l0.6,0.3c-0.2,0.4-0.4,0.7-0.7,1c-0.3,0.2-0.6,0.4-0.9,0.6c-0.3,0.1-0.7,0.2-1.2,0.2
				c-1,0-1.7-0.3-2.2-0.9s-0.8-1.3-0.8-2.1c0-0.7,0.2-1.4,0.7-2c0.6-0.7,1.3-1.1,2.3-1.1c1,0,1.8,0.4,2.4,1.1c0.4,0.5,0.6,1.2,0.6,2
				h-5.3c0,0.7,0.2,1.2,0.7,1.7c0.4,0.4,0.9,0.7,1.6,0.7c0.3,0,0.6-0.1,0.9-0.2s0.5-0.2,0.7-0.4
				C192.4,157.5,192.6,157.2,192.8,156.8z M192.8,155.2c-0.1-0.4-0.2-0.7-0.4-1c-0.2-0.2-0.4-0.4-0.8-0.6c-0.3-0.1-0.6-0.2-1-0.2
				c-0.6,0-1.1,0.2-1.5,0.6c-0.3,0.3-0.5,0.7-0.7,1.2H192.8z"/>
			<path class="st1" d="M200.8,154.1l-0.6,0.4c-0.5-0.7-1.2-1-2.1-1c-0.7,0-1.3,0.2-1.8,0.7s-0.7,1-0.7,1.7c0,0.4,0.1,0.8,0.3,1.2
				c0.2,0.4,0.5,0.7,0.9,0.9c0.4,0.2,0.8,0.3,1.3,0.3c0.9,0,1.6-0.3,2.1-1l0.6,0.4c-0.3,0.4-0.7,0.7-1.1,1c-0.5,0.2-1,0.3-1.6,0.3
				c-0.9,0-1.7-0.3-2.3-0.9s-0.9-1.3-0.9-2.1c0-0.6,0.1-1.1,0.4-1.6c0.3-0.5,0.7-0.9,1.2-1.1s1.1-0.4,1.7-0.4c0.4,0,0.8,0.1,1.1,0.2
				c0.4,0.1,0.7,0.3,0.9,0.5C200.4,153.6,200.6,153.8,200.8,154.1z"/>
			<path class="st1" d="M203,150.7h0.8v2.2h1.2v0.7h-1.2v5.2H203v-5.2h-1v-0.7h1V150.7z"/>
			<path class="st1" d="M208.8,152.7c0.9,0,1.6,0.3,2.2,1c0.5,0.6,0.8,1.3,0.8,2.1c0,0.8-0.3,1.5-0.9,2.1c-0.6,0.6-1.3,0.9-2.2,0.9
				c-0.9,0-1.6-0.3-2.2-0.9s-0.9-1.3-0.9-2.1c0-0.8,0.3-1.5,0.8-2.1C207.2,153.1,207.9,152.7,208.8,152.7z M208.8,153.5
				c-0.6,0-1.2,0.2-1.6,0.7s-0.7,1-0.7,1.7c0,0.4,0.1,0.8,0.3,1.2s0.5,0.6,0.8,0.8c0.3,0.2,0.7,0.3,1.1,0.3s0.8-0.1,1.1-0.3
				c0.3-0.2,0.6-0.5,0.8-0.8c0.2-0.4,0.3-0.8,0.3-1.2c0-0.7-0.2-1.2-0.7-1.7S209.5,153.5,208.8,153.5z"/>
			<path class="st1" d="M213.1,152.9h0.8v0.9c0.2-0.3,0.5-0.6,0.7-0.8c0.3-0.2,0.5-0.2,0.8-0.2c0.2,0,0.4,0.1,0.7,0.2l-0.4,0.6
				c-0.2-0.1-0.3-0.1-0.4-0.1c-0.3,0-0.5,0.1-0.7,0.3c-0.2,0.2-0.4,0.5-0.5,1c-0.1,0.3-0.1,1-0.1,2v2h-0.8V152.9z"/>
			<path class="st1" d="M222.5,152.9v5.8h-0.7v-1c-0.3,0.4-0.7,0.7-1.1,0.9c-0.4,0.2-0.8,0.3-1.3,0.3c-0.8,0-1.5-0.3-2.1-0.9
				c-0.6-0.6-0.9-1.3-0.9-2.2c0-0.8,0.3-1.6,0.9-2.2c0.6-0.6,1.3-0.9,2.1-0.9c0.5,0,0.9,0.1,1.3,0.3c0.4,0.2,0.7,0.5,1,0.9v-1.1
				H222.5z M219.5,153.5c-0.4,0-0.8,0.1-1.2,0.3c-0.4,0.2-0.6,0.5-0.8,0.9s-0.3,0.8-0.3,1.2c0,0.4,0.1,0.8,0.3,1.2
				c0.2,0.4,0.5,0.7,0.8,0.9c0.4,0.2,0.7,0.3,1.1,0.3c0.4,0,0.8-0.1,1.2-0.3c0.4-0.2,0.7-0.5,0.9-0.8c0.2-0.4,0.3-0.8,0.3-1.2
				c0-0.7-0.2-1.2-0.7-1.7S220.2,153.5,219.5,153.5z"/>
			<path class="st1" d="M224.9,150.7h0.8v2.2h1.2v0.7h-1.2v5.2h-0.8v-5.2h-1v-0.7h1V150.7z"/>
			<path class="st1" d="M233,156.8l0.6,0.3c-0.2,0.4-0.4,0.7-0.7,1c-0.3,0.2-0.6,0.4-0.9,0.6s-0.7,0.2-1.2,0.2c-1,0-1.7-0.3-2.2-0.9
				c-0.5-0.6-0.8-1.3-0.8-2.1c0-0.7,0.2-1.4,0.7-2c0.6-0.7,1.3-1.1,2.3-1.1c1,0,1.8,0.4,2.4,1.1c0.4,0.5,0.6,1.2,0.6,2h-5.3
				c0,0.7,0.2,1.2,0.7,1.7c0.4,0.4,0.9,0.7,1.6,0.7c0.3,0,0.6-0.1,0.9-0.2c0.3-0.1,0.5-0.2,0.7-0.4
				C232.5,157.5,232.7,157.2,233,156.8z M233,155.2c-0.1-0.4-0.2-0.7-0.4-1c-0.2-0.2-0.4-0.4-0.8-0.6c-0.3-0.1-0.6-0.2-1-0.2
				c-0.6,0-1.1,0.2-1.5,0.6c-0.3,0.3-0.5,0.7-0.7,1.2H233z"/>
			<path class="st1" d="M246.1,152.2l-0.6,0.6c-0.4-0.4-0.9-0.8-1.4-1s-1-0.3-1.5-0.3c-0.6,0-1.2,0.2-1.8,0.5
				c-0.6,0.3-1,0.7-1.3,1.2c-0.3,0.5-0.5,1.1-0.5,1.7c0,0.6,0.2,1.2,0.5,1.7s0.8,1,1.3,1.3c0.6,0.3,1.2,0.5,1.8,0.5
				c0.8,0,1.5-0.2,2.1-0.7c0.6-0.5,0.9-1.1,1-1.8h-2.5v-0.8h3.4c0,1.2-0.4,2.2-1.1,2.9s-1.7,1.1-2.9,1.1c-1.5,0-2.6-0.5-3.5-1.5
				c-0.7-0.8-1-1.7-1-2.7c0-0.7,0.2-1.4,0.6-2.1s0.9-1.1,1.5-1.5s1.4-0.5,2.2-0.5c0.7,0,1.3,0.1,1.9,0.4
				C245,151.2,245.5,151.6,246.1,152.2z"/>
			<path class="st1" d="M252.9,156.8l0.6,0.3c-0.2,0.4-0.4,0.7-0.7,1c-0.3,0.2-0.6,0.4-0.9,0.6s-0.7,0.2-1.2,0.2
				c-1,0-1.7-0.3-2.2-0.9c-0.5-0.6-0.8-1.3-0.8-2.1c0-0.7,0.2-1.4,0.7-2c0.6-0.7,1.3-1.1,2.3-1.1c1,0,1.8,0.4,2.4,1.1
				c0.4,0.5,0.6,1.2,0.6,2h-5.3c0,0.7,0.2,1.2,0.7,1.7c0.4,0.4,0.9,0.7,1.6,0.7c0.3,0,0.6-0.1,0.9-0.2c0.3-0.1,0.5-0.2,0.7-0.4
				C252.5,157.5,252.7,157.2,252.9,156.8z M252.9,155.2c-0.1-0.4-0.2-0.7-0.4-1c-0.2-0.2-0.4-0.4-0.8-0.6c-0.3-0.1-0.6-0.2-1-0.2
				c-0.6,0-1.1,0.2-1.5,0.6c-0.3,0.3-0.5,0.7-0.7,1.2H252.9z"/>
			<path class="st1" d="M255.2,152.9h0.8v1c0.3-0.4,0.6-0.7,1-0.9c0.4-0.2,0.8-0.3,1.2-0.3c0.4,0,0.8,0.1,1.2,0.3
				c0.3,0.2,0.6,0.5,0.7,0.9c0.2,0.4,0.2,1,0.2,1.8v3h-0.8v-2.8c0-0.7,0-1.1-0.1-1.3c-0.1-0.4-0.3-0.7-0.5-0.9s-0.6-0.3-1-0.3
				c-0.5,0-0.9,0.2-1.2,0.5c-0.4,0.3-0.6,0.7-0.7,1.1c-0.1,0.3-0.1,0.8-0.1,1.6v2.1h-0.8V152.9z"/>
			<path class="st1" d="M266.9,156.8l0.6,0.3c-0.2,0.4-0.4,0.7-0.7,1c-0.3,0.2-0.6,0.4-0.9,0.6s-0.7,0.2-1.2,0.2
				c-1,0-1.7-0.3-2.2-0.9c-0.5-0.6-0.8-1.3-0.8-2.1c0-0.7,0.2-1.4,0.7-2c0.6-0.7,1.3-1.1,2.3-1.1c1,0,1.8,0.4,2.4,1.1
				c0.4,0.5,0.6,1.2,0.6,2h-5.3c0,0.7,0.2,1.2,0.7,1.7c0.4,0.4,0.9,0.7,1.6,0.7c0.3,0,0.6-0.1,0.9-0.2c0.3-0.1,0.5-0.2,0.7-0.4
				C266.5,157.5,266.7,157.2,266.9,156.8z M266.9,155.2c-0.1-0.4-0.2-0.7-0.4-1c-0.2-0.2-0.4-0.4-0.8-0.6c-0.3-0.1-0.6-0.2-1-0.2
				c-0.6,0-1.1,0.2-1.5,0.6c-0.3,0.3-0.5,0.7-0.7,1.2H266.9z"/>
			<path class="st1" d="M268.9,152.9h0.8v0.9c0.2-0.3,0.5-0.6,0.7-0.8c0.3-0.2,0.5-0.2,0.8-0.2c0.2,0,0.4,0.1,0.7,0.2l-0.4,0.6
				c-0.2-0.1-0.3-0.1-0.4-0.1c-0.3,0-0.5,0.1-0.7,0.3c-0.2,0.2-0.4,0.5-0.5,1c-0.1,0.3-0.1,1-0.1,2v2h-0.8V152.9z"/>
			<path class="st1" d="M278.4,152.9v5.8h-0.7v-1c-0.3,0.4-0.7,0.7-1.1,0.9c-0.4,0.2-0.8,0.3-1.3,0.3c-0.8,0-1.5-0.3-2.1-0.9
				c-0.6-0.6-0.9-1.3-0.9-2.2c0-0.8,0.3-1.6,0.9-2.2c0.6-0.6,1.3-0.9,2.1-0.9c0.5,0,0.9,0.1,1.3,0.3c0.4,0.2,0.7,0.5,1,0.9v-1.1
				H278.4z M275.4,153.5c-0.4,0-0.8,0.1-1.2,0.3c-0.4,0.2-0.6,0.5-0.8,0.9s-0.3,0.8-0.3,1.2c0,0.4,0.1,0.8,0.3,1.2
				c0.2,0.4,0.5,0.7,0.8,0.9c0.4,0.2,0.7,0.3,1.1,0.3c0.4,0,0.8-0.1,1.2-0.3c0.4-0.2,0.7-0.5,0.9-0.8c0.2-0.4,0.3-0.8,0.3-1.2
				c0-0.7-0.2-1.2-0.7-1.7S276,153.5,275.4,153.5z"/>
			<path class="st1" d="M280,150.6h0.8v8.1H280V150.6z"/>
			<path class="st1" d="M288.2,152.7c0.9,0,1.6,0.3,2.2,1c0.5,0.6,0.8,1.3,0.8,2.1c0,0.8-0.3,1.5-0.9,2.1c-0.6,0.6-1.3,0.9-2.2,0.9
				c-0.9,0-1.6-0.3-2.2-0.9s-0.9-1.3-0.9-2.1c0-0.8,0.3-1.5,0.8-2.1C286.6,153.1,287.3,152.7,288.2,152.7z M288.2,153.5
				c-0.6,0-1.2,0.2-1.6,0.7s-0.7,1-0.7,1.7c0,0.4,0.1,0.8,0.3,1.2s0.5,0.6,0.8,0.8c0.3,0.2,0.7,0.3,1.1,0.3s0.8-0.1,1.1-0.3
				c0.3-0.2,0.6-0.5,0.8-0.8c0.2-0.4,0.3-0.8,0.3-1.2c0-0.7-0.2-1.2-0.7-1.7S288.9,153.5,288.2,153.5z"/>
			<path class="st1" d="M295.1,150.6v0.7c-0.3-0.1-0.5-0.2-0.7-0.2c-0.1,0-0.3,0-0.4,0.1c-0.1,0.1-0.2,0.1-0.2,0.2s0,0.3,0,0.6v0.8
				h1.2v0.7h-1.2l0,5.2h-0.8v-5.2h-0.8v-0.7h0.8V152c0-0.4,0-0.7,0.1-0.9c0.1-0.2,0.2-0.3,0.4-0.4s0.4-0.2,0.7-0.2
				C294.5,150.5,294.8,150.5,295.1,150.6z"/>
			<path class="st1" d="M299.4,150.8h0.8v3.3h4v-3.3h0.8v7.9h-0.8v-3.8h-4v3.8h-0.8V150.8z"/>
			<path class="st1" d="M307.2,150.5c0.2,0,0.3,0.1,0.4,0.2s0.2,0.3,0.2,0.4c0,0.2-0.1,0.3-0.2,0.4c-0.1,0.1-0.3,0.2-0.4,0.2
				c-0.2,0-0.3-0.1-0.4-0.2c-0.1-0.1-0.2-0.3-0.2-0.4c0-0.2,0.1-0.3,0.2-0.4S307,150.5,307.2,150.5z M306.8,152.9h0.8v5.8h-0.8
				V152.9z"/>
			<path class="st1" d="M314.2,152.9h0.8v4.7c0,0.8-0.1,1.4-0.2,1.8c-0.2,0.5-0.5,1-1,1.2c-0.5,0.3-1.1,0.4-1.8,0.4
				c-0.5,0-1-0.1-1.4-0.2s-0.7-0.3-1-0.6c-0.2-0.2-0.5-0.6-0.7-1h0.8c0.2,0.4,0.5,0.7,0.9,0.9c0.4,0.2,0.8,0.3,1.3,0.3
				c0.5,0,0.9-0.1,1.3-0.3c0.4-0.2,0.6-0.4,0.8-0.7s0.2-0.8,0.2-1.4v-0.3c-0.3,0.4-0.6,0.6-1,0.8c-0.4,0.2-0.8,0.3-1.3,0.3
				c-0.5,0-1-0.1-1.5-0.4c-0.5-0.3-0.8-0.6-1.1-1.1c-0.3-0.5-0.4-0.9-0.4-1.5s0.1-1,0.4-1.5c0.3-0.5,0.6-0.8,1.1-1.1
				c0.5-0.3,1-0.4,1.5-0.4c0.4,0,0.8,0.1,1.2,0.3c0.4,0.2,0.7,0.5,1.1,0.9V152.9z M312,153.5c-0.4,0-0.8,0.1-1.2,0.3
				s-0.7,0.5-0.9,0.9s-0.3,0.8-0.3,1.2c0,0.6,0.2,1.2,0.6,1.6c0.4,0.4,1,0.6,1.7,0.6c0.7,0,1.2-0.2,1.7-0.6s0.6-1,0.6-1.6
				c0-0.4-0.1-0.8-0.3-1.2s-0.5-0.6-0.8-0.8C312.8,153.6,312.4,153.5,312,153.5z"/>
			<path class="st1" d="M316.6,150.6h0.8v3.3c0.3-0.4,0.6-0.7,1-0.9c0.4-0.2,0.8-0.3,1.2-0.3c0.4,0,0.8,0.1,1.2,0.3
				c0.3,0.2,0.6,0.5,0.7,0.9s0.2,1,0.2,1.8v3H321v-2.8c0-0.7,0-1.1-0.1-1.3c-0.1-0.4-0.3-0.7-0.5-0.9s-0.6-0.3-1-0.3
				c-0.5,0-0.9,0.2-1.2,0.5c-0.4,0.3-0.6,0.7-0.7,1.1c-0.1,0.3-0.1,0.8-0.1,1.6v2.1h-0.8V150.6z"/>
			<path class="st1" d="M322.6,152.9h0.8l1.8,4.2l1.9-4.2h0.1l1.9,4.2l1.8-4.2h0.8l-2.5,5.8H329l-1.9-4.2l-1.9,4.2h-0.1L322.6,152.9
				z"/>
			<path class="st1" d="M338.4,152.9v5.8h-0.7v-1c-0.3,0.4-0.7,0.7-1.1,0.9c-0.4,0.2-0.8,0.3-1.3,0.3c-0.8,0-1.5-0.3-2.1-0.9
				c-0.6-0.6-0.9-1.3-0.9-2.2c0-0.8,0.3-1.6,0.9-2.2c0.6-0.6,1.3-0.9,2.1-0.9c0.5,0,0.9,0.1,1.3,0.3c0.4,0.2,0.7,0.5,1,0.9v-1.1
				H338.4z M335.4,153.5c-0.4,0-0.8,0.1-1.2,0.3c-0.4,0.2-0.6,0.5-0.8,0.9s-0.3,0.8-0.3,1.2c0,0.4,0.1,0.8,0.3,1.2
				c0.2,0.4,0.5,0.7,0.8,0.9c0.4,0.2,0.7,0.3,1.1,0.3c0.4,0,0.8-0.1,1.2-0.3c0.4-0.2,0.7-0.5,0.9-0.8c0.2-0.4,0.3-0.8,0.3-1.2
				c0-0.7-0.2-1.2-0.7-1.7S336,153.5,335.4,153.5z"/>
			<path class="st1" d="M339.5,152.9h0.8l2,4.5l2-4.5h0.8l-3.5,8h-0.8l1.1-2.6L339.5,152.9z"/>
			<path class="st1" d="M349,153.5l-0.5,0.5c-0.4-0.4-0.8-0.6-1.2-0.6c-0.2,0-0.5,0.1-0.6,0.2c-0.2,0.2-0.3,0.3-0.3,0.6
				c0,0.2,0.1,0.4,0.2,0.5c0.1,0.2,0.4,0.4,0.9,0.6c0.6,0.3,0.9,0.6,1.1,0.8c0.2,0.3,0.3,0.6,0.3,0.9c0,0.5-0.2,0.9-0.5,1.2
				c-0.3,0.3-0.8,0.5-1.3,0.5c-0.3,0-0.7-0.1-1-0.2c-0.3-0.1-0.6-0.3-0.8-0.6l0.5-0.5c0.4,0.4,0.8,0.6,1.2,0.6
				c0.3,0,0.6-0.1,0.8-0.3s0.3-0.4,0.3-0.7c0-0.2-0.1-0.4-0.2-0.6c-0.1-0.2-0.5-0.4-0.9-0.6c-0.5-0.3-0.9-0.5-1.1-0.8
				c-0.2-0.3-0.3-0.6-0.3-0.9c0-0.4,0.2-0.8,0.5-1.1c0.3-0.3,0.7-0.4,1.1-0.4C348,152.7,348.5,153,349,153.5z"/>
			<path class="st1" d="M351.2,157.3l0.7,0.3l-1.1,2l-0.5-0.2L351.2,157.3z"/>
			<path class="st1" d="M356.4,158.7l1.1-7.9h0.1l3.2,6.5l3.2-6.5h0.1l1.1,7.9h-0.8l-0.8-5.7l-2.8,5.7h-0.2l-2.8-5.7l-0.8,5.7H356.4
				z"/>
			<path class="st1" d="M370.7,150.6c1.2,0,2.2,0.4,3,1.2c0.8,0.8,1.2,1.8,1.2,2.9c0,1.2-0.4,2.1-1.2,2.9c-0.8,0.8-1.8,1.2-2.9,1.2
				c-1.2,0-2.2-0.4-3-1.2c-0.8-0.8-1.2-1.8-1.2-2.9c0-0.8,0.2-1.5,0.6-2.1s0.9-1.2,1.5-1.5C369.2,150.8,369.9,150.6,370.7,150.6z
				 M370.7,151.4c-0.6,0-1.1,0.2-1.7,0.5c-0.5,0.3-0.9,0.7-1.2,1.2s-0.4,1.1-0.4,1.7c0,0.9,0.3,1.7,1,2.4c0.7,0.6,1.4,1,2.4,1
				c0.6,0,1.2-0.1,1.7-0.4c0.5-0.3,0.9-0.7,1.2-1.2c0.3-0.5,0.4-1.1,0.4-1.7c0-0.6-0.1-1.2-0.4-1.7s-0.7-0.9-1.2-1.2
				C371.9,151.6,371.3,151.4,370.7,151.4z"/>
			<path class="st1" d="M375.7,151.6v-0.8h4.3v0.8h-1.8v7.1h-0.8v-7.1H375.7z"/>
			<path class="st1" d="M388.6,152.3l-0.6,0.5c-0.3-0.4-0.8-0.8-1.2-1c-0.5-0.2-1-0.3-1.6-0.3c-0.6,0-1.2,0.2-1.8,0.5
				s-1,0.7-1.2,1.2c-0.3,0.5-0.4,1.1-0.4,1.7c0,1,0.3,1.8,1,2.4c0.7,0.6,1.5,1,2.5,1c1.1,0,2-0.4,2.8-1.3l0.6,0.5
				c-0.4,0.5-0.9,0.9-1.5,1.2c-0.6,0.3-1.2,0.4-2,0.4c-1.4,0-2.5-0.5-3.3-1.4c-0.7-0.8-1-1.7-1-2.8c0-1.2,0.4-2.1,1.2-2.9
				c0.8-0.8,1.8-1.2,3-1.2c0.7,0,1.4,0.1,2,0.4C387.8,151.4,388.2,151.8,388.6,152.3z"/>
		</g>
		<g id="Group_3062" transform="translate(169 88.934)">
			<path id="Path_1" class="st2" d="M121.9,19.6h14.7c-1,2.4-3.4,3.9-6,3.9h-8.7L121.9,19.6z"/>
			<path id="Path_2" class="st3" d="M136.4,19.6h0.2c-1,2.4-3.4,3.9-6,3.9h-8.7v-0.2h8.6C133,23.3,135.3,21.9,136.4,19.6"/>
			<path id="Path_3" class="st4" d="M121.9,19.6h14.7c-0.1,0-0.2,0.1-0.3,0.1h-14.4V19.6z"/>
			<path id="Path_4" class="st5" d="M156.1,3.1c-1,2.4-3.4,3.9-6,3.9h-28.2V3.1H156.1z"/>
			<path id="Path_5" class="st3" d="M156.1,3.1c-1,2.4-3.4,3.9-6,3.9h-28.2V6.8H150c2.5,0,4.8-1.5,5.9-3.8L156.1,3.1z"/>
			<path id="Path_6" class="st6" d="M156.1,3.1c-0.1,0-0.2,0.1-0.3,0.1h-33.9V3.1H156.1z"/>
			<path id="Path_7" class="st5" d="M149.9,8.6c-1,2.4-3.4,3.9-6,3.9h-22.1V8.6H149.9z"/>
			<path id="Path_8" class="st3" d="M149.9,8.6c-1,2.4-3.4,3.9-6,3.9h-22.1v-0.1h21.9c2.5,0,4.8-1.5,5.9-3.8L149.9,8.6z"/>
			<path id="Path_9" class="st6" d="M149.9,8.6c-0.1,0-0.2,0.1-0.3,0.1h-27.8V8.6H149.9z"/>
			<path id="Path_10" class="st2" d="M143.3,14.1c-1,2.4-3.4,3.9-6,3.9h-15.4v-3.9H143.3z"/>
			<path id="Path_11" class="st3" d="M143.3,14.1c-1,2.4-3.4,3.9-6,3.9h-15.4v-0.1h15.2c2.5,0,4.8-1.5,5.9-3.8L143.3,14.1z"/>
			<path id="Path_12" class="st4" d="M143.3,14.1c-0.1,0-0.2,0.1-0.3,0.1h-21.1v-0.1H143.3z"/>
			<path id="Path_13" class="st2" d="M102.6,19.6H87.9c1,2.4,3.4,3.9,6,3.9h8.7V19.6z"/>
			<path id="Path_14" class="st3" d="M88.1,19.6h-0.2c1,2.4,3.4,3.9,6,3.9h8.7v-0.2H94C91.5,23.3,89.2,21.9,88.1,19.6"/>
			<path id="Path_15" class="st4" d="M102.6,19.6H87.9c0.1,0,0.2,0.1,0.3,0.1h14.4L102.6,19.6z"/>
			<path id="Path_16" class="st5" d="M68.4,3.1c1,2.4,3.4,3.9,6,3.9h28.2V3.1H68.4z"/>
			<path id="Path_17" class="st3" d="M68.4,3.1c1,2.4,3.4,3.9,6,3.9h28.2V6.8H74.5c-2.5,0-4.8-1.5-5.9-3.8L68.4,3.1z"/>
			<path id="Path_18" class="st6" d="M68.4,3.1c0.1,0,0.2,0.1,0.3,0.1h33.9V3.1H68.4z"/>
			<path id="Path_19" class="st5" d="M74.5,8.6c1,2.4,3.4,3.9,6,3.9h22.1V8.6H74.5z"/>
			<path id="Path_20" class="st3" d="M74.5,8.6c1,2.4,3.4,3.9,6,3.9h22.1v-0.1H80.7c-2.5,0-4.8-1.5-5.9-3.8L74.5,8.6z"/>
			<path id="Path_21" class="st6" d="M74.5,8.6c0.1,0,0.2,0.1,0.3,0.1h27.8V8.6H74.5z"/>
			<path id="Path_22" class="st2" d="M81.2,14.1c1,2.4,3.4,3.9,6,3.9h15.4v-3.9H81.2z"/>
			<path id="Path_23" class="st3" d="M81.2,14.1c1,2.4,3.4,3.9,6,3.9h15.4v-0.1H87.3c-2.5,0-4.8-1.5-5.9-3.8L81.2,14.1z"/>
			<path id="Path_24" class="st4" d="M81.2,14.1c0.1,0,0.2,0.1,0.3,0.1h21.1v-0.1H81.2z"/>
			<path id="Path_25" class="st7" d="M127.5,13.3c0,8.4-6.8,15.3-15.3,15.3c-8.4,0-15.3-6.8-15.3-15.3S103.8-2,112.2-2l0,0
				C120.7-2,127.5,4.9,127.5,13.3"/>
			<path id="Path_26" class="st8" d="M123.8,12.3h2.2c-0.5-6.8-5.9-12.2-12.7-12.7v2.2C118.9,2.4,123.3,6.8,123.8,12.3 M119.8,10.3
				h-15.1c1.1-2.7,3.6-4.5,6.4-4.9V3.2c-4.8,0.5-8.7,4.3-9.2,9.2h20.5c-0.5-4.8-4.3-8.6-9.2-9.2v2.2C116.2,5.7,118.6,7.6,119.8,10.3
				 M126.1,14.2h-12.7V20h2.1l-2.1,1.3l0,0V27c0.1,0,0.1,0,0.2,0l0,0h0.2l0,0c0.1,0,0.1,0,0.2,0l0,0h0.2l0,0c0.1,0,0.1,0,0.2,0l0,0
				h0.1l0,0h0.1l0,0h0.1c0,0,0,0,0.1,0h0.1h0.1h0.1c0,0,0,0,0.1,0h0.1c0,0,0,0,0.1,0s0.1,0,0.1,0h0.1h0.1h0.1h0.1h0.1c0,0,0,0,0.1,0
				h0.1h0.1h0.1h0.1h0.1c0,0,0,0,0.1,0h0.1c0,0,0,0,0.1,0h0.1l0,0c2.6-0.9,4.9-2.6,6.5-4.9h-6l2.1-1.3h4.8c0.4-0.7,0.7-1.3,1-2.1
				H123l2.9-1.8C125.9,15.6,126,14.9,126.1,14.2 M118.3,23L118.3,23c-0.8,0.6-1.7,1-2.6,1.3h-0.1l0,0h-0.1l0,0l0,0V23H118.3z
				 M118.8,18h-3.4v-1.7h6.2L118.8,18z M111.1,14.2H98.4c0.2,2.1,0.8,4.1,1.8,5.8h5.1v2.5c-0.5-0.4-0.9-0.8-1.4-1.2H101
				c1.1,1.5,2.4,2.7,3.9,3.6l0,0h0.1c1.7,1,3.7,1.7,5.7,1.9l0,0h0.1c0.1,0,0.2,0,0.3,0v-2.2H111l0,0h-0.1c-1.3-0.1-2.5-0.5-3.6-1V23
				h3.7v-1.7h-3.7V20h3.8L111.1,14.2z M109.1,18h-7.4c-0.3-0.6-0.5-1.1-0.6-1.7h8.1L109.1,18z M111.1,1.8v-2.2
				C104.4,0.2,99,5.5,98.4,12.3h2.2C101.2,6.8,105.6,2.4,111.1,1.8"/>
		</g>
		<g class="st0">
			<path d="M179.8,137.6h-4v1.4h-2.6v-9.2h6.6v-3.7h2.7v3.7h6.6v9.1h-2.6v-1.4h-4v7.3h-2.7V137.6z M179.8,136.3v-5.2h-4v5.2H179.8z
				 M186.5,136.3v-5.2h-4v5.2H186.5z"/>
			<path d="M210.1,127.8v1.2h-4.5v1.6h-2.5v-1.6h-3.9v1.6h-2.5v-1.6h-4.5v-1.2h4.5v-1.6h2.5v1.6h3.9v-1.6h2.5v1.6H210.1z
				 M206.8,134.2h3.2v1.2h-3.2v2.1h2.5v1.2h-6.9v1.5h6.1v1.2h-6.1v3.4h-2.6v-3.4h-6.1v-1.2h6.1v-1.5h-6.8v-1.2h2.5v-2.1h-3.2v-1.2
				h3.2v-2h-2.1v-1.2h15.4v1.2h-2.1V134.2z M197.9,132.3v2h2v-2H197.9z M199.9,137.5v-2.1h-2v2.1H199.9z M202.5,132.3v2h2v-2H202.5z
				 M204.5,137.5v-2.1h-2v2.1H204.5z"/>
			<path d="M226.9,144.5c-2.8-0.7-4.9-3.9-5.9-7.9h-4.3v4.8c1.8-0.3,3.6-0.7,4.8-1l0.4,1c-2.3,1.3-7,3.1-9,3.4l-0.7-2.8
				c0.5,0,1.2-0.1,1.9-0.2V127h14v5.7h-5.4c0.1,0.9,0.3,1.8,0.4,2.6h6.3v1.3h-5.9c0.9,2.8,2.2,4.7,3.6,5.3c0.8,0.3,1.1,0.1,1.1-3.3
				h1.2C230.4,143.3,230.1,145.3,226.9,144.5z M216.7,131.4h8.9v-3.1h-8.9V131.4z M220.7,135.3c-0.2-0.9-0.3-1.7-0.4-2.6h-3.6v2.6
				H220.7z"/>
			<path d="M249.3,126.9v17.8h-2.4v-0.9h-11.4v0.9h-2.4v-17.9H249.3z M246.9,128.1h-2.6c0.6,0.5,1.4,1.4,1.9,2.1l-0.9,0.5h1.2v1.2
				h-3.4c0.1,1.5,0.2,2.8,0.3,3.9c0.4-1,0.7-2,1-3.2l1.7,0.6c-0.5,1.8-1.2,3.5-2.2,5c0.3,0.7,0.5,1.1,0.9,1.3
				c0.3,0.2,0.4-0.5,0.5-2.5h0.9c0.7,4.1-0.1,5.1-1.4,4.8c-1-0.2-1.7-1-2.2-2c-1,1-2.2,1.8-3.7,2.4l-0.4-0.8
				c1.5-0.9,2.7-1.9,3.6-3.1c-0.5-1.8-0.8-4.1-0.9-6.4h-5.4v-1.2h5.4c0-0.7,0-1.5,0-2.2h2c0,0.8,0,1.5,0,2.2h1.4
				c-0.3-0.8-0.8-1.6-1.1-2.2l0.7-0.4h-8.6v14.5h11.4V128.1z M236.2,141.1l-0.6-1.9c2-0.3,4.2-0.9,5.7-1.5l0.3,0.8
				C240.1,139.5,237.9,140.6,236.2,141.1z M236.3,133h4.5v4.4h-4.5V133z M237.9,136.4h1.2v-2.3h-1.2V136.4z"/>
			<path d="M268.9,144.7c-2.9-0.7-5.4-1.7-7.5-3.4c-2.3,1.8-5.2,2.9-8.7,3.4l-0.3-1c3.2-0.9,5.6-2.1,7.4-3.9
				c-1.1-1.3-2.1-2.8-2.9-4.6l0.9-0.6c1.3,1.6,2.3,2.8,3.4,3.8c0.9-1.2,1.7-2.6,2.4-4.3l2.5,1.2c-0.9,1.7-1.8,3.2-3,4.5
				c1.8,1,3.9,1.6,7,2.2L268.9,144.7z M257.2,130.6h-4.5v-1.4h8.3c-1.1-0.8-2.3-1.7-3.3-2.3l0.4-1c1.5,0.3,3.6,1,5.1,1.9l-0.9,1.4
				h7.2v1.4h-12.1l2.2,1.2c-1.8,2.4-4.2,4.2-6.7,5.3l-0.5-0.9C254.3,134.8,256,133,257.2,130.6z M263.5,130.7
				c2.1,0.7,4.7,2.4,6.5,3.9l-1.8,2.1c-1.7-1.9-3.7-3.8-5.2-5.1L263.5,130.7z"/>
			<path d="M290.4,141.5l-0.6,2.6c-2.3,0.2-5.7,0.2-7.9,0.1c-2.7-0.1-4.5-0.5-5.7-2.8c-0.6,1.2-1.6,2.5-2.7,3.5l-1.4-1.7
				c1-0.7,2-1.6,2.6-2.3v-4.6h-2.3v-1.2h4.8v5.5c0.7,1.4,2.2,1.4,4.3,1.5C284.5,142.1,287.7,141.9,290.4,141.5z M275.5,134.2
				c-0.8-1-2.1-2.4-3-3.4l0.6-0.9c1.1,0.4,2.9,1.5,4,2.4L275.5,134.2z M273.3,127l0.6-0.8c1.2,0.4,2.9,1.4,4,2.3l-1.6,1.8
				C275.3,129.1,274.2,127.9,273.3,127z M280.7,141.2h-2.3V131h4.9c-0.8-0.6-1.6-1.2-2.4-1.6l0.4-0.9c0.9,0.2,1.9,0.6,2.9,1
				c0.5-0.4,0.9-0.8,1.3-1.3h-6.9V127h7.3l0.7-0.4l2.2,1.5c-1.1,0.9-2,1.4-3.2,1.9c0.2,0.1,0.3,0.2,0.5,0.2l-0.5,0.7h3.7v8.2
				c0,2-1.7,2.4-4,1.3l0.2-1c1.3,0.2,1.5,0.1,1.5-0.8v-1.2h-1.9v3.6h-2.2v-3.6h-1.9V141.2z M280.7,132.2v1.5h1.9v-1.5H280.7z
				 M282.7,136.3v-1.5h-1.9v1.5H282.7z M286.9,132.2h-1.9v1.5h1.9V132.2z M286.9,136.3v-1.5h-1.9v1.5H286.9z"/>
			<path d="M299.2,134.9h2.9v1.2h-9.9v-1.2h2.4c-0.4-1.3-0.8-2.6-1.2-3.8l1-0.5c1,1.1,1.9,2.6,2.5,3.7l-1.4,0.6h2.3
				c0.4-1.2,0.8-2.8,1-4.4l2.5,0.8C300.8,132.6,300,133.9,299.2,134.9z M301.7,130.4h-9v-1.2h4c-0.5-0.9-1-1.8-1.6-2.6l0.7-0.7
				c1.1,0.6,2.2,1.5,3.1,2.5l-1,0.8h3.8V130.4z M293.3,137.5h8v7.1H299v-1.3h-3.3v1.4h-2.4V137.5z M295.7,142.1h3.3v-3.4h-3.3V142.1
				z M305.2,141.2l0.2-1.1c1.7,0.3,2.1,0,1.9-1.8c-0.1-1.2-0.7-3-1.6-4.6c0.5-1.9,0.8-3.5,1-5.1h-1.9v16.2h-2.4v-18l2.4,0.6h1.7
				l0.6-0.5l2.3,1c-0.9,2.6-1.7,4.3-2.7,5.9c1.5,1.6,2.7,3.3,2.9,5.1C310.1,142.3,307.4,142.5,305.2,141.2z"/>
			<path d="M312.6,137.7l-0.6-0.8c2.2-2.3,4-5.5,5-9.5l2.8,1C318.5,131.9,315.7,135.7,312.6,137.7z M329.1,143.2l-2.7,1.5
				c-0.3-0.9-0.8-1.9-1.3-2.9c-3.1,1.1-7.4,2-10.9,2.3l-0.7-3c0.9,0,1.8,0,2.7,0c1.3-2.3,2.5-5.6,3.1-8.3l3,1.1
				c-1.1,2.4-2.8,5.2-4.4,7.1c2.4-0.1,4.8-0.3,6.6-0.5c-0.5-1-1-2-1.6-2.9l0.9-0.7C325.9,138.8,327.8,141,329.1,143.2z M323.6,128.4
				h-3.1v-1.3h4.2c0.7,3.9,3.1,6.3,5.9,7.8l-2,2.7C325.9,135.7,324.1,132.1,323.6,128.4z"/>
			<path d="M349.7,138.1c-0.3-0.1-0.5-0.2-0.7-0.3v6.8h-2.3v-1.2h-3.4v1.2h-2.3v-6.8c-0.5,0.2-1.1,0.4-1.6,0.6l-0.4-1
				c2-0.9,3.6-2,4.8-3.3c-0.7-0.9-1.3-1.8-1.8-2.7c-0.5,0.6-1,1.2-1.6,1.7l-0.5-0.5v0.7H338v2.2h2.2v1.2H338v3.9
				c0.8-0.2,1.5-0.4,2-0.6l0.4,1c-1.4,1.1-5.4,2.7-7.6,3.3l-0.7-2.5l1-0.1v-6.5h2v6.2c0.2,0,0.5-0.1,0.7-0.1v-7.9h-2.6V127h6.6v5.1
				c1-1.7,1.8-3.9,2.2-6.2l2.4,0.7c-0.2,0.5-0.4,1.1-0.6,1.6h2.5l0.5-0.4l2.3,1.1c-0.6,1.9-1.6,3.6-2.8,5.1c1.3,0.7,2.8,1.2,4.3,1.6
				L349.7,138.1z M335.4,132.2h2.3v-4h-2.3V132.2z M348.1,137.5c-1.2-0.6-2.2-1.3-3.2-2.1c-1,0.8-2,1.5-3.3,2.1H348.1z M344.7,132.9
				c0.7-1,1.2-2.1,1.6-3.4h-3.1c-0.2,0.3-0.4,0.6-0.6,1C343.2,131.4,343.9,132.2,344.7,132.9z M346.6,138.7h-3.4v3.5h3.4V138.7z"/>
			<path d="M354.4,138.8c0.1,2.1,0,4.4-0.4,5.8l-2.1-0.8c0.7-1.3,1.3-3.1,1.6-5.1L354.4,138.8z M353.6,136.1c0.7-1,1.3-2.1,1.9-3.4
				c-1,0.4-1.9,0.6-2.8,0.9l-0.5-2.1c0.4,0,0.7,0,1.1,0c0.6-1.6,1.1-3.4,1.4-5.4l2.4,0.6c-0.7,1.7-1.7,3.5-2.6,4.8l1.6-0.1
				c0.3-0.7,0.6-1.5,0.9-2.2l2.2,1c-1.1,2.2-2.7,4.4-4.2,6c0.7,0,1.4-0.1,2.1-0.2c-0.2-0.4-0.3-0.9-0.5-1.2l0.8-0.5
				c0.7,0.8,1.5,1.9,2,2.9v-8.8h3.5c0.1-0.7,0.2-1.4,0.3-2.4l2.6,0.4c-0.5,0.8-1,1.4-1.5,1.9h5.1v8.8h-4.9c0.9,0.5,1.8,1.2,2.5,1.9
				l-1.6,1.6c-0.9-1.3-1.7-2.4-2.4-3.2l0.2-0.3h-3.8l0.1,0.3l-1.7,0.8c-0.1-0.5-0.3-0.9-0.4-1.4c-1.7,0.8-3.3,1.2-4.7,1.5l-0.5-2.2
				C352.6,136.1,353.1,136.1,353.6,136.1z M355.9,138.5c0.5,1.4,1.1,3.6,1.3,5l-2.1,0.3c0-1.3,0-3.7-0.2-5.2L355.9,138.5z
				 M359.7,138.6l1,0.2c0,1.8-0.2,3.5-0.8,4.9l-2-1c0.3-0.4,0.6-0.9,0.9-1.4l-1.4,0.6c-0.3-1.3-0.6-2.3-1-3.6l0.8-0.4
				c0.8,1.1,1.3,2,1.8,3C359.3,140.2,359.6,139.4,359.7,138.6z M367.4,140.4c0.8,2.9,0.4,3.8-1.1,3.9c-1.1,0.1-1.9,0.1-2.9,0
				c-1.9-0.1-2.2-0.6-2.2-2.5v-3.9h2.2v3.4c0,0.7,0.2,0.9,0.8,1c0.5,0,1,0,1.5,0c0.6-0.1,0.7-0.3,0.7-1.9H367.4z M361.5,129.4v1.7
				l0.1-0.2c0.3,0.1,0.6,0.2,0.9,0.4c0.2-0.6,0.4-1.2,0.5-1.9H361.5z M361.5,133.3c0.2-0.3,0.4-0.7,0.5-1c-0.2-0.1-0.4-0.3-0.5-0.4
				V133.3z M361.5,135.9h0.7l-0.3-0.6c0.8-0.5,1.5-1.1,2-1.8l-0.9-0.7c-0.3,0.4-0.6,0.7-0.9,1l-0.6-0.4V135.9z M367.2,135.9v-1.2
				l-0.8,1c-0.5-0.4-1-0.8-1.5-1.2c-0.7,0.7-1.5,1.1-2.2,1.5H367.2z M367.2,129.4h-3.6l1.1,0.3c-0.1,0.2-0.2,0.4-0.3,0.7h0.8
				l0.4-0.3l1.5,0.6c-0.3,1-0.7,1.9-1.1,2.5c0.4,0.3,0.9,0.5,1.2,0.8V129.4z M363.6,131.9c0.3,0.2,0.7,0.4,1,0.6
				c0.2-0.4,0.4-0.7,0.5-1.2H364C363.9,131.5,363.7,131.7,363.6,131.9z M370.5,142.4l-1.9,0.8c-0.3-1.4-0.7-3-1.2-4.2l0.8-0.4
				C369.1,139.6,370,141.1,370.5,142.4z"/>
			<path d="M389.3,133.7c-0.1,4.8-0.1,7.2-0.3,8.8c-0.2,2.6-2.5,2.8-5.9,0.9l0.3-1c2.8,0.5,3.1,0.4,3.2-0.7c0.1-1.5,0.1-3.2,0.2-6.9
				h-10.1c-0.1,4.4-0.9,7.7-3.5,10l-0.8-0.6c1.6-3,1.7-6.5,1.7-11.5v-5.6h14.3v4.7h-11.7v0.9v0.8H389.3z M376.6,128.4v2.3h9.1v-2.3
				H376.6z M379.6,141.2v1.3h-2.4v-6.1h7.7v4.8H379.6z M379.6,137.6v2.4h3v-2.4H379.6z"/>
		</g>
	</g>
</g>
</svg>
