<?xml version="1.0" encoding="utf-8"?>
<!-- Generator: Adobe Illustrator 27.2.0, SVG Export Plug-In . SVG Version: 6.00 Build 0)  -->
<svg version="1.1" id="Layer_1" xmlns="http://www.w3.org/2000/svg" xmlns:xlink="http://www.w3.org/1999/xlink" x="0px" y="0px"
	 viewBox="0 0 512 512" style="enable-background:new 0 0 512 512;" xml:space="preserve">
<path d="M396,213V34.7C396,15.6,380.4,0,361.2,0H78.8C59.6,0,44,15.6,44,34.7v370.5c0,19.2,15.6,34.7,34.7,34.7H292v56
	c0,12.2,13.2,20,23.9,13.9l48.1-27.5c53.1,30.3,50.3,29.6,56,29.6c8.8,0,16-7.2,16-16V387C492.9,332.2,470.4,237.1,396,213z
	 M78.8,408c-1.5,0-2.7-1.2-2.7-2.7V34.7c0-1.5,1.2-2.7,2.7-2.7h282.5c1.5,0,2.7,1.2,2.7,2.7V208c-57.3,0-104,46.7-104,104
	c0,29.4,12.3,56,32,75v21H78.8z M404,468.4l-32.1-18.3c-4.9-2.8-11-2.8-15.9,0L324,468.4V408c25.5,10.7,54.5,10.7,80,0L404,468.4
	L404,468.4z M364,384c-39.7,0-72-32.3-72-72s32.3-72,72-72s72,32.3,72,72S403.7,384,364,384z"/>
<path d="M356,353c-6.2,0-7-1.5-32.9-18.7c-7.4-4.9-9.3-14.8-4.4-22.2c4.9-7.4,14.8-9.3,22.2-4.4l10.7,7.1l23.1-34.7
	c4.9-7.4,14.8-9.3,22.2-4.4c7.4,4.9,9.3,14.8,4.4,22.2l-32,48C366.2,350.5,361.2,353,356,353L356,353z"/>
<path d="M276,112H140c-8.8,0-16-7.2-16-16s7.2-16,16-16h136c8.8,0,16,7.2,16,16S284.8,112,276,112z"/>
<path d="M276,176H140c-8.8,0-16-7.2-16-16s7.2-16,16-16h136c8.8,0,16,7.2,16,16S284.8,176,276,176z"/>
<path d="M220,240h-80c-8.8,0-16-7.2-16-16s7.2-16,16-16h80c8.8,0,16,7.2,16,16S228.8,240,220,240z"/>
</svg>
