<?xml version="1.0" encoding="utf-8"?>
<!-- Generator: Adobe Illustrator 27.2.0, SVG Export Plug-In . SVG Version: 6.00 Build 0)  -->
<svg version="1.1" id="圖層_1" xmlns="http://www.w3.org/2000/svg" xmlns:xlink="http://www.w3.org/1999/xlink" x="0px" y="0px"
	 viewBox="0 0 512 512" style="enable-background:new 0 0 512 512;" xml:space="preserve">
<path d="M372.1,65.9l13-17c6.7-8.8,19.3-10.4,28-3.7s10.4,19.3,3.7,28l-13,17C400,95.3,394,98,388,98c-4.2,0-8.5-1.3-12.1-4.1
	C367.1,87.2,365.4,74.6,372.1,65.9z M488.6,316.1l-20-7c-10.4-3.6-21.8,1.8-25.5,12.3s1.8,21.8,12.3,25.5l20,7
	c2.2,0.8,4.4,1.1,6.6,1.1c8.3,0,16-5.2,18.9-13.4C504.5,331.2,499,319.8,488.6,316.1z M112.1,90.1c3.9,5.1,9.9,7.9,15.9,7.9
	c4.2,0,8.5-1.3,12.1-4.1c8.8-6.7,10.4-19.3,3.7-28l-13-17c-6.7-8.8-19.3-10.4-28-3.7c-8.8,6.7-10.4,19.3-3.7,28L112.1,90.1z
	 M45.4,304.1l-20,7c-10.4,3.6-15.9,15.1-12.3,25.5C16,344.8,23.7,350,32,350c2.2,0,4.4-0.4,6.6-1.1l20-7
	c10.4-3.6,15.9-15.1,12.3-25.5C67.2,306,55.8,300.5,45.4,304.1z M257,451c-11,0-20,9-20,20v21c0,11,9,20,20,20c11,0,20-9,20-20v-21
	C277,460,268.1,451,257,451z M425.2,400.8L404,337.6c-3.5-10.5-14.9-16.1-25.3-12.6c-10.5,3.5-16.1,14.9-12.6,25.3l21.2,63
	c2.8,8.6-3.1,13.7-4.9,15c-2.3,1.7-8.6,5.1-15.7-0.1l-78.5-56.9c-18.8-13.7-44-13.7-62.9,0.1l-78.5,57.8c-7,5.1-13.3,1.7-15.6,0
	c-1.9-1.4-7.7-6.4-4.9-15.2l30-93.2c7.1-22.1-0.6-46.1-19.3-59.7l-78.3-57.3c-7.1-5.2-5.8-12.1-4.9-14.8c0.9-2.7,3.9-9.1,12.7-9.1
	h96.8c23.1,0,43.5-15,50.8-37.5l30-93.3c2.7-8.4,9.8-9.3,12.7-9.3c2.9,0,10,0.9,12.7,9.3l30,93.3C306.6,165,327,180,350.1,180h97.4
	c8.8,0,11.8,6.4,12.7,9.1c0.9,2.7,2.2,9.6-4.9,14.8l-53.2,38.9c-8.9,6.5-10.9,19-4.3,28c6.5,8.9,19,10.9,27.9,4.3l53.2-38.9
	c19-13.9,26.6-37.2,19.4-59.5c-7.3-22.3-27.2-36.7-50.7-36.7h-97.4c-5.6,0-10.8-4-12.7-9.7l-30-93.3c-7.3-22.5-27.2-37-50.8-37
	s-43.5,14.5-50.8,37l-30,93.3c-1.9,5.7-7.1,9.7-12.7,9.7H66.4c-23.6,0-43.5,14.4-50.8,36.7C8.4,199,16,222.4,35,236.2l78.3,57.3
	c4.7,3.4,6.7,9.5,4.9,15.1l-30,93.2c-7.3,22.5,0.4,46,19.5,59.8c9.5,6.9,20.4,10.3,31.2,10.3c10.9,0,21.9-3.5,31.5-10.5l78.5-57.8
	c4.7-3.4,11-3.4,15.7,0l78.5,56.9c19,13.9,43.6,13.9,62.6,0.1c19.1-13.9,26.8-37.3,19.5-59.8C425.2,400.9,425.2,400.8,425.2,400.8z"
	/>
</svg>
