<?xml version="1.0" encoding="utf-8"?>
<!-- Generator: Adobe Illustrator 27.2.0, SVG Export Plug-In . SVG Version: 6.00 Build 0)  -->
<svg version="1.1" id="圖層_1" xmlns="http://www.w3.org/2000/svg" xmlns:xlink="http://www.w3.org/1999/xlink" x="0px" y="0px"
	 viewBox="0 0 350 50" style="enable-background:new 0 0 350 50;" xml:space="preserve">
<style type="text/css">
	.st0{enable-background:new    ;}
	.st1{fill:#444343;}
	.st2{fill:#0092E5;}
	.st3{fill:#00176F;}
	.st4{fill:#79C3EE;}
	.st5{fill:#0054A4;}
	.st6{fill:#53B7EB;}
	.st7{fill:#FFFFFF;}
	.st8{fill:#DF1808;}
</style>
<g id="major_logo" transform="translate(-524 -415)">
	<g id="logo" transform="translate(357 331.066)">
		<g class="st0">
			<path class="st1" d="M293.8,127.1v-7.9h1.6c1.2,0,2,0.1,2.6,0.3c0.8,0.3,1.4,0.7,1.8,1.4c0.4,0.7,0.6,1.5,0.6,2.4
				c0,0.8-0.2,1.5-0.5,2.1s-0.8,1-1.3,1.3s-1.3,0.4-2.3,0.4C296.3,127.1,293.8,127.1,293.8,127.1z M294.6,126.4h0.9
				c1.1,0,1.8-0.1,2.3-0.2c0.6-0.2,1.1-0.5,1.4-1s0.5-1.1,0.5-1.8c0-0.8-0.2-1.4-0.6-2s-0.9-0.9-1.5-1.1c-0.5-0.2-1.3-0.2-2.4-0.2
				h-0.6L294.6,126.4L294.6,126.4z"/>
			<path class="st1" d="M302.1,118.9c0.2,0,0.3,0.1,0.4,0.2s0.2,0.3,0.2,0.4c0,0.2-0.1,0.3-0.2,0.4s-0.3,0.2-0.4,0.2
				c-0.2,0-0.3-0.1-0.4-0.2s-0.2-0.3-0.2-0.4c0-0.2,0.1-0.3,0.2-0.4S302,118.9,302.1,118.9z M301.8,121.3h0.8v5.8h-0.8V121.3z"/>
			<path class="st1" d="M303.8,121.3h0.8v0.9c0.2-0.3,0.5-0.6,0.7-0.8c0.3-0.2,0.5-0.2,0.8-0.2c0.2,0,0.4,0.1,0.7,0.2l-0.4,0.6
				c-0.2-0.1-0.3-0.1-0.4-0.1c-0.3,0-0.5,0.1-0.7,0.3s-0.4,0.5-0.5,1c-0.1,0.3-0.1,1-0.1,2v2h-0.8v-5.9H303.8z"/>
			<path class="st1" d="M312.3,125.2l0.6,0.3c-0.2,0.4-0.4,0.7-0.7,1c-0.3,0.2-0.6,0.4-0.9,0.6c-0.3,0.1-0.7,0.2-1.2,0.2
				c-1,0-1.7-0.3-2.2-0.9s-0.8-1.3-0.8-2.1c0-0.7,0.2-1.4,0.7-2c0.6-0.7,1.3-1.1,2.3-1.1s1.8,0.4,2.4,1.1c0.4,0.5,0.6,1.2,0.6,2
				h-5.3c0,0.7,0.2,1.2,0.7,1.7c0.4,0.4,0.9,0.7,1.6,0.7c0.3,0,0.6-0.1,0.9-0.2s0.5-0.2,0.7-0.4
				C311.9,125.8,312.1,125.5,312.3,125.2z M312.3,123.6c-0.1-0.4-0.2-0.7-0.4-1c-0.2-0.2-0.4-0.4-0.8-0.6c-0.3-0.1-0.6-0.2-1-0.2
				c-0.6,0-1.1,0.2-1.5,0.6c-0.3,0.3-0.5,0.7-0.7,1.2H312.3z"/>
			<path class="st1" d="M320.2,122.5l-0.6,0.4c-0.5-0.7-1.2-1-2.1-1c-0.7,0-1.3,0.2-1.8,0.7s-0.7,1-0.7,1.7c0,0.4,0.1,0.8,0.3,1.2
				c0.2,0.4,0.5,0.7,0.9,0.9c0.4,0.2,0.8,0.3,1.3,0.3c0.9,0,1.6-0.3,2.1-1l0.6,0.4c-0.3,0.4-0.7,0.7-1.1,1c-0.5,0.2-1,0.3-1.6,0.3
				c-0.9,0-1.7-0.3-2.3-0.9s-0.9-1.3-0.9-2.1c0-0.6,0.1-1.1,0.4-1.6s0.7-0.9,1.2-1.1s1.1-0.4,1.7-0.4c0.4,0,0.8,0.1,1.1,0.2
				c0.4,0.1,0.7,0.3,0.9,0.5C319.8,121.9,320,122.2,320.2,122.5z"/>
			<path class="st1" d="M322.3,119.1h0.8v2.2h1.2v0.7h-1.2v5.2h-0.8V122h-1v-0.7h1V119.1z"/>
			<path class="st1" d="M328.1,121.1c0.9,0,1.6,0.3,2.2,1c0.5,0.6,0.8,1.3,0.8,2.1c0,0.8-0.3,1.5-0.9,2.1s-1.3,0.9-2.2,0.9
				c-0.9,0-1.6-0.3-2.2-0.9s-0.9-1.3-0.9-2.1c0-0.8,0.3-1.5,0.8-2.1C326.5,121.4,327.2,121.1,328.1,121.1z M328.1,121.8
				c-0.6,0-1.2,0.2-1.6,0.7s-0.7,1-0.7,1.7c0,0.4,0.1,0.8,0.3,1.2s0.5,0.6,0.8,0.8c0.3,0.2,0.7,0.3,1.1,0.3s0.8-0.1,1.1-0.3
				c0.3-0.2,0.6-0.5,0.8-0.8c0.2-0.4,0.3-0.8,0.3-1.2c0-0.7-0.2-1.2-0.7-1.7S328.8,121.8,328.1,121.8z"/>
			<path class="st1" d="M332.3,121.3h0.8v0.9c0.2-0.3,0.5-0.6,0.7-0.8c0.3-0.2,0.5-0.2,0.8-0.2c0.2,0,0.4,0.1,0.7,0.2l-0.4,0.6
				c-0.2-0.1-0.3-0.1-0.4-0.1c-0.3,0-0.5,0.1-0.7,0.3c-0.2,0.2-0.4,0.5-0.5,1c-0.1,0.3-0.1,1-0.1,2v2h-0.8v-5.9H332.3z"/>
			<path class="st1" d="M341.7,121.3v5.8H341v-1c-0.3,0.4-0.7,0.7-1.1,0.9c-0.4,0.2-0.8,0.3-1.3,0.3c-0.8,0-1.5-0.3-2.1-0.9
				s-0.9-1.3-0.9-2.2c0-0.8,0.3-1.6,0.9-2.2s1.3-0.9,2.1-0.9c0.5,0,0.9,0.1,1.3,0.3c0.4,0.2,0.7,0.5,1,0.9v-1.1L341.7,121.3
				L341.7,121.3z M338.7,121.8c-0.4,0-0.8,0.1-1.2,0.3c-0.4,0.2-0.6,0.5-0.8,0.9s-0.3,0.8-0.3,1.2c0,0.4,0.1,0.8,0.3,1.2
				c0.2,0.4,0.5,0.7,0.8,0.9c0.4,0.2,0.7,0.3,1.1,0.3s0.8-0.1,1.2-0.3c0.4-0.2,0.7-0.5,0.9-0.8c0.2-0.4,0.3-0.8,0.3-1.2
				c0-0.7-0.2-1.2-0.7-1.7S339.4,121.8,338.7,121.8z"/>
			<path class="st1" d="M344.1,119.1h0.8v2.2h1.2v0.7h-1.2v5.2h-0.8V122h-1v-0.7h1V119.1z"/>
			<path class="st1" d="M352.1,125.2l0.6,0.3c-0.2,0.4-0.4,0.7-0.7,1c-0.3,0.2-0.6,0.4-0.9,0.6s-0.7,0.2-1.2,0.2
				c-1,0-1.7-0.3-2.2-0.9s-0.8-1.3-0.8-2.1c0-0.7,0.2-1.4,0.7-2c0.6-0.7,1.3-1.1,2.3-1.1s1.8,0.4,2.4,1.1c0.4,0.5,0.6,1.2,0.6,2
				h-5.3c0,0.7,0.2,1.2,0.7,1.7c0.4,0.4,0.9,0.7,1.6,0.7c0.3,0,0.6-0.1,0.9-0.2s0.5-0.2,0.7-0.4
				C351.6,125.8,351.8,125.5,352.1,125.2z M352.1,123.6c-0.1-0.4-0.2-0.7-0.4-1c-0.2-0.2-0.4-0.4-0.8-0.6c-0.3-0.1-0.6-0.2-1-0.2
				c-0.6,0-1.1,0.2-1.5,0.6c-0.3,0.3-0.5,0.7-0.7,1.2H352.1z"/>
			<path class="st1" d="M365.1,120.5l-0.6,0.6c-0.4-0.4-0.9-0.8-1.4-1s-1-0.3-1.5-0.3c-0.6,0-1.2,0.2-1.8,0.5
				c-0.6,0.3-1,0.7-1.3,1.2s-0.5,1.1-0.5,1.7s0.2,1.2,0.5,1.7s0.8,1,1.3,1.3c0.6,0.3,1.2,0.5,1.8,0.5c0.8,0,1.5-0.2,2.1-0.7
				s0.9-1.1,1-1.8h-2.5v-0.8h3.4c0,1.2-0.4,2.2-1.1,2.9s-1.7,1.1-2.9,1.1c-1.5,0-2.6-0.5-3.5-1.5c-0.7-0.8-1-1.7-1-2.7
				c0-0.7,0.2-1.4,0.6-2.1s0.9-1.1,1.5-1.5s1.4-0.5,2.2-0.5c0.7,0,1.3,0.1,1.9,0.4C363.9,119.6,364.5,120,365.1,120.5z"/>
			<path class="st1" d="M371.8,125.2l0.6,0.3c-0.2,0.4-0.4,0.7-0.7,1c-0.3,0.2-0.6,0.4-0.9,0.6s-0.7,0.2-1.2,0.2
				c-1,0-1.7-0.3-2.2-0.9s-0.8-1.3-0.8-2.1c0-0.7,0.2-1.4,0.7-2c0.6-0.7,1.3-1.1,2.3-1.1s1.8,0.4,2.4,1.1c0.4,0.5,0.6,1.2,0.6,2
				h-5.3c0,0.7,0.2,1.2,0.7,1.7c0.4,0.4,0.9,0.7,1.6,0.7c0.3,0,0.6-0.1,0.9-0.2s0.5-0.2,0.7-0.4
				C371.4,125.8,371.6,125.5,371.8,125.2z M371.8,123.6c-0.1-0.4-0.2-0.7-0.4-1c-0.2-0.2-0.4-0.4-0.8-0.6c-0.3-0.1-0.6-0.2-1-0.2
				c-0.6,0-1.1,0.2-1.5,0.6c-0.3,0.3-0.5,0.7-0.7,1.2H371.8z"/>
			<path class="st1" d="M374.1,121.3h0.8v1c0.3-0.4,0.6-0.7,1-0.9c0.4-0.2,0.8-0.3,1.2-0.3c0.4,0,0.8,0.1,1.2,0.3
				c0.3,0.2,0.6,0.5,0.7,0.9c0.2,0.4,0.2,1,0.2,1.8v3h-0.8v-2.8c0-0.7,0-1.1-0.1-1.3c-0.1-0.4-0.3-0.7-0.5-0.9s-0.6-0.3-1-0.3
				c-0.5,0-0.9,0.2-1.2,0.5c-0.4,0.3-0.6,0.7-0.7,1.1c-0.1,0.3-0.1,0.8-0.1,1.6v2.1H374L374.1,121.3L374.1,121.3z"/>
			<path class="st1" d="M385.7,125.2l0.6,0.3c-0.2,0.4-0.4,0.7-0.7,1c-0.3,0.2-0.6,0.4-0.9,0.6s-0.7,0.2-1.2,0.2
				c-1,0-1.7-0.3-2.2-0.9s-0.8-1.3-0.8-2.1c0-0.7,0.2-1.4,0.7-2c0.6-0.7,1.3-1.1,2.3-1.1s1.8,0.4,2.4,1.1c0.4,0.5,0.6,1.2,0.6,2
				h-5.3c0,0.7,0.2,1.2,0.7,1.7c0.4,0.4,0.9,0.7,1.6,0.7c0.3,0,0.6-0.1,0.9-0.2s0.5-0.2,0.7-0.4
				C385.3,125.8,385.5,125.5,385.7,125.2z M385.7,123.6c-0.1-0.4-0.2-0.7-0.4-1c-0.2-0.2-0.4-0.4-0.8-0.6c-0.3-0.1-0.6-0.2-1-0.2
				c-0.6,0-1.1,0.2-1.5,0.6c-0.3,0.3-0.5,0.7-0.7,1.2H385.7z"/>
			<path class="st1" d="M387.6,121.3h0.8v0.9c0.2-0.3,0.5-0.6,0.7-0.8c0.3-0.2,0.5-0.2,0.8-0.2c0.2,0,0.4,0.1,0.7,0.2l-0.4,0.6
				c-0.2-0.1-0.3-0.1-0.4-0.1c-0.3,0-0.5,0.1-0.7,0.3c-0.2,0.2-0.4,0.5-0.5,1c-0.1,0.3-0.1,1-0.1,2v2h-0.8v-5.9H387.6z"/>
			<path class="st1" d="M397.1,121.3v5.8h-0.7v-1c-0.3,0.4-0.7,0.7-1.1,0.9c-0.4,0.2-0.8,0.3-1.3,0.3c-0.8,0-1.5-0.3-2.1-0.9
				s-0.9-1.3-0.9-2.2c0-0.8,0.3-1.6,0.9-2.2s1.3-0.9,2.1-0.9c0.5,0,0.9,0.1,1.3,0.3c0.4,0.2,0.7,0.5,1,0.9v-1.1L397.1,121.3
				L397.1,121.3z M394.1,121.8c-0.4,0-0.8,0.1-1.2,0.3c-0.4,0.2-0.6,0.5-0.8,0.9s-0.3,0.8-0.3,1.2c0,0.4,0.1,0.8,0.3,1.2
				c0.2,0.4,0.5,0.7,0.8,0.9c0.4,0.2,0.7,0.3,1.1,0.3s0.8-0.1,1.2-0.3c0.4-0.2,0.7-0.5,0.9-0.8c0.2-0.4,0.3-0.8,0.3-1.2
				c0-0.7-0.2-1.2-0.7-1.7S394.7,121.8,394.1,121.8z"/>
			<path class="st1" d="M398.6,119h0.8v8.1h-0.8V119z"/>
			<path class="st1" d="M406.8,121.1c0.9,0,1.6,0.3,2.2,1c0.5,0.6,0.8,1.3,0.8,2.1c0,0.8-0.3,1.5-0.9,2.1s-1.3,0.9-2.2,0.9
				c-0.9,0-1.6-0.3-2.2-0.9s-0.9-1.3-0.9-2.1c0-0.8,0.3-1.5,0.8-2.1C405.1,121.4,405.9,121.1,406.8,121.1z M406.8,121.8
				c-0.6,0-1.2,0.2-1.6,0.7s-0.7,1-0.7,1.7c0,0.4,0.1,0.8,0.3,1.2s0.5,0.6,0.8,0.8c0.3,0.2,0.7,0.3,1.1,0.3s0.8-0.1,1.1-0.3
				c0.3-0.2,0.6-0.5,0.8-0.8c0.2-0.4,0.3-0.8,0.3-1.2c0-0.7-0.2-1.2-0.7-1.7S407.4,121.8,406.8,121.8z"/>
			<path class="st1" d="M413.6,119v0.7c-0.3-0.1-0.5-0.2-0.7-0.2c-0.1,0-0.3,0-0.4,0.1s-0.2,0.1-0.2,0.2s0,0.3,0,0.6v0.8h1.2v0.7
				h-1.2v5.2h-0.8v-5.2h-0.8v-0.7h0.8v-0.9c0-0.4,0-0.7,0.1-0.9c0.1-0.2,0.2-0.3,0.4-0.4s0.4-0.2,0.7-0.2
				C413,118.9,413.3,118.9,413.6,119z"/>
			<path class="st1" d="M417.8,119.2h0.8v3.3h4v-3.3h0.8v7.9h-0.8v-3.8h-4v3.8h-0.8V119.2z"/>
			<path class="st1" d="M425.5,118.9c0.2,0,0.3,0.1,0.4,0.2s0.2,0.3,0.2,0.4c0,0.2-0.1,0.3-0.2,0.4s-0.3,0.2-0.4,0.2
				c-0.2,0-0.3-0.1-0.4-0.2s-0.2-0.3-0.2-0.4c0-0.2,0.1-0.3,0.2-0.4S425.3,118.9,425.5,118.9z M425.1,121.3h0.8v5.8h-0.8V121.3z"/>
			<path class="st1" d="M432.5,121.3h0.8v4.7c0,0.8-0.1,1.4-0.2,1.8c-0.2,0.5-0.5,1-1,1.2c-0.5,0.3-1.1,0.4-1.8,0.4
				c-0.5,0-1-0.1-1.4-0.2s-0.7-0.3-1-0.6c-0.2-0.2-0.5-0.6-0.7-1h0.8c0.2,0.4,0.5,0.7,0.9,0.9s0.8,0.3,1.3,0.3s0.9-0.1,1.3-0.3
				s0.6-0.4,0.8-0.7s0.2-0.8,0.2-1.4V126c-0.3,0.4-0.6,0.6-1,0.8c-0.4,0.2-0.8,0.3-1.3,0.3s-1-0.1-1.5-0.4s-0.8-0.6-1.1-1.1
				c-0.3-0.5-0.4-0.9-0.4-1.5s0.1-1,0.4-1.5s0.6-0.8,1.1-1.1c0.5-0.3,1-0.4,1.5-0.4c0.4,0,0.8,0.1,1.2,0.3c0.4,0.2,0.7,0.5,1.1,0.9
				L432.5,121.3L432.5,121.3z M430.2,121.8c-0.4,0-0.8,0.1-1.2,0.3s-0.7,0.5-0.9,0.9s-0.3,0.8-0.3,1.2c0,0.6,0.2,1.2,0.6,1.6
				s1,0.6,1.7,0.6s1.2-0.2,1.7-0.6s0.6-1,0.6-1.6c0-0.4-0.1-0.8-0.3-1.2s-0.5-0.6-0.8-0.8C431,121.9,430.6,121.8,430.2,121.8z"/>
			<path class="st1" d="M434.8,119h0.8v3.3c0.3-0.4,0.6-0.7,1-0.9c0.4-0.2,0.8-0.3,1.2-0.3c0.4,0,0.8,0.1,1.2,0.3
				c0.3,0.2,0.6,0.5,0.7,0.9s0.2,1,0.2,1.8v3h-0.8v-2.8c0-0.7,0-1.1-0.1-1.3c-0.1-0.4-0.3-0.7-0.5-0.9s-0.6-0.3-1-0.3
				c-0.5,0-0.9,0.2-1.2,0.5c-0.4,0.3-0.6,0.7-0.7,1.1c-0.1,0.3-0.1,0.8-0.1,1.6v2.1h-0.8L434.8,119L434.8,119z"/>
			<path class="st1" d="M440.7,121.3h0.8l1.8,4.2l1.9-4.2h0.1l1.9,4.2l1.8-4.2h0.8l-2.5,5.8h-0.1l-1.9-4.2l-1.9,4.2h-0.1
				L440.7,121.3z"/>
			<path class="st1" d="M456.5,121.3v5.8h-0.7v-1c-0.3,0.4-0.7,0.7-1.1,0.9c-0.4,0.2-0.8,0.3-1.3,0.3c-0.8,0-1.5-0.3-2.1-0.9
				s-0.9-1.3-0.9-2.2c0-0.8,0.3-1.6,0.9-2.2s1.3-0.9,2.1-0.9c0.5,0,0.9,0.1,1.3,0.3c0.4,0.2,0.7,0.5,1,0.9v-1.1L456.5,121.3
				L456.5,121.3z M453.5,121.8c-0.4,0-0.8,0.1-1.2,0.3c-0.4,0.2-0.6,0.5-0.8,0.9s-0.3,0.8-0.3,1.2c0,0.4,0.1,0.8,0.3,1.2
				c0.2,0.4,0.5,0.7,0.8,0.9c0.4,0.2,0.7,0.3,1.1,0.3s0.8-0.1,1.2-0.3c0.4-0.2,0.7-0.5,0.9-0.8c0.2-0.4,0.3-0.8,0.3-1.2
				c0-0.7-0.2-1.2-0.7-1.7S454.1,121.8,453.5,121.8z"/>
			<path class="st1" d="M457.6,121.3h0.8l2,4.5l2-4.5h0.8l-3.5,8h-0.8l1.1-2.6L457.6,121.3z"/>
			<path class="st1" d="M467,121.9l-0.5,0.5c-0.4-0.4-0.8-0.6-1.2-0.6c-0.2,0-0.5,0.1-0.6,0.2c-0.2,0.2-0.3,0.3-0.3,0.6
				c0,0.2,0.1,0.4,0.2,0.5c0.1,0.2,0.4,0.4,0.9,0.6c0.6,0.3,0.9,0.6,1.1,0.8c0.2,0.3,0.3,0.6,0.3,0.9c0,0.5-0.2,0.9-0.5,1.2
				c-0.3,0.3-0.8,0.5-1.3,0.5c-0.3,0-0.7-0.1-1-0.2s-0.6-0.3-0.8-0.6l0.5-0.5c0.4,0.4,0.8,0.6,1.2,0.6c0.3,0,0.6-0.1,0.8-0.3
				s0.3-0.4,0.3-0.7c0-0.2-0.1-0.4-0.2-0.6s-0.5-0.4-0.9-0.6c-0.5-0.3-0.9-0.5-1.1-0.8s-0.3-0.6-0.3-0.9c0-0.4,0.2-0.8,0.5-1.1
				c0.3-0.3,0.7-0.4,1.1-0.4C465.9,121.1,466.5,121.4,467,121.9z"/>
			<path class="st1" d="M469.1,125.7l0.7,0.3l-1.1,2l-0.5-0.2L469.1,125.7z"/>
			<path class="st1" d="M474.2,127.1l1.1-7.9h0.1l3.2,6.5l3.2-6.5h0.1l1.1,7.9h-0.8l-0.8-5.7l-2.8,5.7h-0.2l-2.8-5.7l-0.8,5.7H474.2
				z"/>
			<path class="st1" d="M488.4,119c1.2,0,2.2,0.4,3,1.2c0.8,0.8,1.2,1.8,1.2,2.9c0,1.2-0.4,2.1-1.2,2.9c-0.8,0.8-1.8,1.2-2.9,1.2
				c-1.2,0-2.2-0.4-3-1.2c-0.8-0.8-1.2-1.8-1.2-2.9c0-0.8,0.2-1.5,0.6-2.1s0.9-1.2,1.5-1.5S487.7,119,488.4,119z M488.5,119.8
				c-0.6,0-1.1,0.2-1.7,0.5c-0.5,0.3-0.9,0.7-1.2,1.2s-0.4,1.1-0.4,1.7c0,0.9,0.3,1.7,1,2.4c0.7,0.6,1.4,1,2.4,1
				c0.6,0,1.2-0.1,1.7-0.4s0.9-0.7,1.2-1.2c0.3-0.5,0.4-1.1,0.4-1.7s-0.1-1.2-0.4-1.7s-0.7-0.9-1.2-1.2
				C489.6,119.9,489.1,119.8,488.5,119.8z"/>
			<path class="st1" d="M493.4,120v-0.8h4.3v0.8H496v7.1h-0.8V120H493.4z"/>
			<path class="st1" d="M506.3,120.7l-0.6,0.5c-0.3-0.4-0.8-0.8-1.2-1c-0.5-0.2-1-0.3-1.6-0.3s-1.2,0.2-1.8,0.5s-1,0.7-1.2,1.2
				c-0.3,0.5-0.4,1.1-0.4,1.7c0,1,0.3,1.8,1,2.4s1.5,1,2.5,1c1.1,0,2-0.4,2.8-1.3l0.6,0.5c-0.4,0.5-0.9,0.9-1.5,1.2
				c-0.6,0.3-1.2,0.4-2,0.4c-1.4,0-2.5-0.5-3.3-1.4c-0.7-0.8-1-1.7-1-2.8c0-1.2,0.4-2.1,1.2-2.9c0.8-0.8,1.8-1.2,3-1.2
				c0.7,0,1.4,0.1,2,0.4C505.4,119.7,505.9,120.1,506.3,120.7z"/>
		</g>
		<g id="Group_3062" transform="translate(169 88.934)">
			<path id="Path_1" class="st2" d="M69,28h18.4c-1.3,3-4.2,4.9-7.5,4.9H69V28z"/>
			<path id="Path_2" class="st3" d="M87.1,28h0.3c-1.3,3-4.2,4.9-7.5,4.9H69v-0.2h10.7C82.8,32.7,85.7,30.8,87.1,28"/>
			<path id="Path_3" class="st4" d="M69,28h18.4c-0.1,0-0.2,0.1-0.4,0.2H69V28z"/>
			<path id="Path_4" class="st5" d="M111.7,7.3c-1.3,3-4.2,4.9-7.5,4.9H69V7.3H111.7z"/>
			<path id="Path_5" class="st3" d="M111.7,7.3c-1.3,3-4.2,4.9-7.5,4.9H69V12h35.1c3.2,0,6-1.8,7.4-4.7H111.7z"/>
			<path id="Path_6" class="st6" d="M111.7,7.3c-0.1,0.1-0.2,0.1-0.4,0.2H69V7.3H111.7z"/>
			<path id="Path_7" class="st5" d="M104.1,14.2c-1.3,3-4.2,4.9-7.5,4.9H69v-4.9C69,14.2,104.1,14.2,104.1,14.2z"/>
			<path id="Path_8" class="st3" d="M104.1,14.2c-1.3,3-4.2,4.9-7.5,4.9H69v-0.2h27.4c3.2,0,6-1.8,7.4-4.7H104.1z"/>
			<path id="Path_9" class="st6" d="M104.1,14.2c-0.1,0.1-0.2,0.1-0.4,0.2H69v-0.2H104.1z"/>
			<path id="Path_10" class="st2" d="M95.7,21.1c-1.3,3-4.2,4.9-7.5,4.9H69v-4.9H95.7z"/>
			<path id="Path_11" class="st3" d="M95.7,21.1c-1.3,3-4.2,4.9-7.5,4.9H69v-0.2h19c3.2,0,6.1-1.8,7.4-4.7L95.7,21.1z"/>
			<path id="Path_12" class="st4" d="M95.7,21.1c-0.1,0.1-0.2,0.1-0.4,0.2H69v-0.2H95.7z"/>
			<path id="Path_13" class="st2" d="M44.8,28H26.4c1.3,3,4.2,4.9,7.5,4.9h10.9V28z"/>
			<path id="Path_14" class="st3" d="M26.7,28h-0.3c1.3,3,4.2,4.9,7.5,4.9h10.9v-0.2H34.1C30.9,32.7,28,30.8,26.7,28"/>
			<path id="Path_15" class="st4" d="M44.8,28H26.4c0.1,0,0.2,0.1,0.4,0.2h18V28z"/>
			<path id="Path_16" class="st5" d="M2,7.3c1.3,3,4.2,4.9,7.5,4.9h35.3V7.3H2z"/>
			<path id="Path_17" class="st3" d="M2,7.3c1.3,3,4.2,4.9,7.5,4.9h35.3V12H9.7c-3.2,0-6-1.8-7.4-4.7H2z"/>
			<path id="Path_18" class="st6" d="M2,7.3c0.1,0.1,0.2,0.1,0.4,0.2h42.4V7.3H2z"/>
			<path id="Path_19" class="st5" d="M9.7,14.2c1.3,3,4.2,4.9,7.5,4.9h27.6v-4.9C44.8,14.2,9.7,14.2,9.7,14.2z"/>
			<path id="Path_20" class="st3" d="M9.7,14.2c1.3,3,4.2,4.9,7.5,4.9h27.6v-0.2H17.4c-3.2,0-6.1-1.8-7.4-4.7H9.7z"/>
			<path id="Path_21" class="st6" d="M9.7,14.2c0.1,0.1,0.2,0.1,0.4,0.2h34.7v-0.2H9.7z"/>
			<path id="Path_22" class="st2" d="M18,21.1c1.3,3,4.2,4.9,7.5,4.9h19.3v-4.9H18z"/>
			<path id="Path_23" class="st3" d="M18,21.1c1.3,3,4.2,4.9,7.5,4.9h19.3v-0.2H25.7c-3.2,0-6.1-1.8-7.4-4.7L18,21.1z"/>
			<path id="Path_24" class="st4" d="M18,21.1c0.1,0.1,0.2,0.1,0.4,0.2h26.4v-0.2H18z"/>
			<path id="Path_25" class="st7" d="M76,20.1c0,10.5-8.5,19.1-19.1,19.1c-10.5,0-19.1-8.5-19.1-19.1S46.3,1,56.9,1l0,0
				C67.4,1,76,9.5,76,20.1"/>
			<path id="Path_26" class="st8" d="M71.4,18.9h2.8c-0.7-8.5-7.5-15.2-16-15.9v2.8C65.2,6.4,70.7,11.9,71.4,18.9 M66.3,16.3H47.4
				c1.4-3.3,4.5-5.7,8.1-6.2V7.4c-6,0.7-10.8,5.4-11.5,11.5h25.7c-0.7-6-5.4-10.8-11.5-11.5v2.7C61.8,10.6,64.9,13,66.3,16.3
				 M74.2,21.2h-16v7.3h2.6l-2.6,1.6l0,0v7c0.1,0,0.1,0,0.2,0l0,0h0.2l0,0c0.1,0,0.1,0,0.2,0l0,0H59l0,0c0.1,0,0.1,0,0.2,0h0.1
				c0.1,0,0.1,0,0.2,0l0,0h0.2h0.1H60c0,0,0,0,0.1,0h0.1h0.1h0.1h0.1c0.1,0,0.1,0,0.2,0h0.1h0.1H61h0.1h0.1c0.1,0,0.1,0,0.1,0h0.1
				h0.1h0.2h0.1h0.1H62h0.2c0,0,0,0,0.1,0l0.2-0.1c0,0,0,0,0.1,0h0.1l0,0c3.3-1.2,6.1-3.3,8.2-6.1h-7.5l2.6-1.6h6
				c0.5-0.8,0.9-1.7,1.2-2.6h-3l3.6-2.2C74,22.9,74.1,22.1,74.2,21.2 M64.5,32.2L64.5,32.2c-1,0.7-2.1,1.2-3.3,1.6h-0.1
				c0,0,0,0-0.1,0h-0.1h-0.1l0,0v-1.7L64.5,32.2z M65.1,26h-4.3v-2.2h7.8L65.1,26z M55.5,21.2H39.6c0.2,2.6,1,5.1,2.3,7.3h6.4v3.1
				c-0.6-0.4-1.2-0.9-1.7-1.5H43c1.3,1.8,3,3.4,4.9,4.5l0,0l0.1,0.1c2.2,1.3,4.6,2.1,7.1,2.4l0,0h0.1c0.1,0,0.2,0,0.4,0v-2.8h-0.1
				l0,0h-0.1c-1.6-0.2-3.1-0.6-4.5-1.2v-0.9h4.7v-2.1h-4.7v-1.6h4.7L55.5,21.2z M52.9,26h-9.3c-0.3-0.7-0.6-1.4-0.8-2.2h10.1V26z
				 M55.5,5.8V3C47,3.7,40.3,10.4,39.6,18.9h2.8C43,11.9,48.5,6.4,55.5,5.8"/>
		</g>
		<g class="st0">
			<path d="M300.5,105.9h-4v1.4h-2.6v-9.2h6.6v-3.7h2.7v3.7h6.6v9.1h-2.6v-1.4h-4v7.3h-2.7V105.9z M300.5,104.7v-5.2h-4v5.2H300.5z
				 M307.2,104.7v-5.2h-4v5.2H307.2z"/>
			<path d="M330.8,96.2v1.2h-4.5V99h-2.5v-1.6h-3.9V99h-2.5v-1.6H313v-1.2h4.5v-1.6h2.5v1.6h3.9v-1.6h2.5v1.6
				C326.4,96.2,330.8,96.2,330.8,96.2z M327.5,102.6h3.2v1.2h-3.2v2.1h2.5v1.2h-6.9v1.5h6.1v1.2h-6.1v3.4h-2.6v-3.4h-6.1v-1.2h6.1
				v-1.5h-6.8v-1.2h2.5v-2.1H313v-1.2h3.2v-2h-2.1v-1.2h15.4v1.2h-2.1v2H327.5z M318.6,100.6v2h2v-2H318.6z M320.5,105.9v-2.1h-2
				v2.1H320.5z M323.1,100.6v2h2v-2H323.1z M325.1,105.9v-2.1h-2v2.1H325.1z"/>
			<path d="M347.6,112.9c-2.8-0.7-4.9-3.9-5.9-7.9h-4.3v4.8c1.8-0.3,3.6-0.7,4.8-1l0.4,1c-2.3,1.3-7,3.1-9,3.4l-0.7-2.8
				c0.5,0,1.2-0.1,1.9-0.2V95.4h14v5.7h-5.4c0.1,0.9,0.3,1.8,0.4,2.6h6.3v1.3h-5.9c0.9,2.8,2.2,4.7,3.6,5.3c0.8,0.3,1.1,0.1,1.1-3.3
				h1.2C351.1,111.6,350.8,113.7,347.6,112.9z M337.4,99.7h8.9v-3.1h-8.9V99.7z M341.4,103.6c-0.2-0.9-0.3-1.7-0.4-2.6h-3.6v2.6
				H341.4z"/>
			<path d="M370,95.2V113h-2.4v-0.9h-11.4v0.9h-2.4V95.2H370z M367.5,96.5h-2.6c0.6,0.5,1.4,1.4,1.9,2.1l-0.9,0.5h1.2v1.2h-3.4
				c0.1,1.5,0.2,2.8,0.3,3.9c0.4-1,0.7-2,1-3.2l1.7,0.6c-0.5,1.8-1.2,3.5-2.2,5c0.3,0.7,0.5,1.1,0.9,1.3c0.3,0.2,0.4-0.5,0.5-2.5
				h0.9c0.7,4.1-0.1,5.1-1.4,4.8c-1-0.2-1.7-1-2.2-2c-1,1-2.2,1.8-3.7,2.4l-0.4-0.8c1.5-0.9,2.7-1.9,3.6-3.1
				c-0.5-1.8-0.8-4.1-0.9-6.4h-5.4v-1.2h5.4c0-0.7,0-1.5,0-2.2h2c0,0.8,0,1.5,0,2.2h1.4c-0.3-0.8-0.8-1.6-1.1-2.2l0.7-0.4h-8.6V111
				h11.4L367.5,96.5L367.5,96.5z M356.8,109.4l-0.6-1.9c2-0.3,4.2-0.9,5.7-1.5l0.3,0.8C360.7,107.9,358.6,108.9,356.8,109.4z
				 M356.9,101.4h4.5v4.4h-4.5V101.4z M358.6,104.7h1.2v-2.3h-1.2V104.7z"/>
			<path d="M389.6,113.1c-2.9-0.7-5.4-1.7-7.5-3.4c-2.3,1.8-5.2,2.9-8.7,3.4l-0.3-1c3.2-0.9,5.6-2.1,7.4-3.9
				c-1.1-1.3-2.1-2.8-2.9-4.6l0.9-0.6c1.3,1.6,2.3,2.8,3.4,3.8c0.9-1.2,1.7-2.6,2.4-4.3l2.5,1.2c-0.9,1.7-1.8,3.2-3,4.5
				c1.8,1,3.9,1.6,7,2.2L389.6,113.1z M377.9,99h-4.5v-1.4h8.3c-1.1-0.8-2.3-1.7-3.3-2.3l0.4-1c1.5,0.3,3.6,1,5.1,1.9l-0.9,1.4h7.2
				V99h-12.1l2.2,1.2c-1.8,2.4-4.2,4.2-6.7,5.3l-0.5-0.9C375,103.2,376.6,101.4,377.9,99z M384.2,99.1c2.1,0.7,4.7,2.4,6.5,3.9
				l-1.8,2.1c-1.7-1.9-3.7-3.8-5.2-5.1L384.2,99.1z"/>
			<path d="M411,109.9l-0.6,2.6c-2.3,0.2-5.7,0.2-7.9,0.1c-2.7-0.1-4.5-0.5-5.7-2.8c-0.6,1.2-1.6,2.5-2.7,3.5l-1.4-1.7
				c1-0.7,2-1.6,2.6-2.3v-4.6H393v-1.2h4.8v5.5c0.7,1.4,2.2,1.4,4.3,1.5C405.2,110.5,408.4,110.3,411,109.9z M396.1,102.5
				c-0.8-1-2.1-2.4-3-3.4l0.6-0.9c1.1,0.4,2.9,1.5,4,2.4L396.1,102.5z M393.9,95.3l0.6-0.8c1.2,0.4,2.9,1.4,4,2.3l-1.6,1.8
				C395.9,97.5,394.8,96.2,393.9,95.3z M401.4,109.6h-2.3V99.4h4.9c-0.8-0.6-1.6-1.2-2.4-1.6l0.4-0.9c0.9,0.2,1.9,0.6,2.9,1
				c0.5-0.4,0.9-0.8,1.3-1.3h-6.9v-1.2h7.3l0.7-0.4l2.2,1.5c-1.1,0.9-2,1.4-3.2,1.9c0.2,0.1,0.3,0.2,0.5,0.2l-0.5,0.7h3.7v8.2
				c0,2-1.7,2.4-4,1.3l0.2-1c1.3,0.2,1.5,0.1,1.5-0.8v-1.2h-1.9v3.6h-2.2v-3.6h-1.9v3.8H401.4z M401.4,100.5v1.5h1.9v-1.5H401.4z
				 M403.3,104.7v-1.5h-1.9v1.5H403.3z M407.5,100.5h-1.9v1.5h1.9V100.5z M407.5,104.7v-1.5h-1.9v1.5H407.5z"/>
			<path d="M419.9,103.3h2.9v1.2h-9.9v-1.2h2.4c-0.4-1.3-0.8-2.6-1.2-3.8l1-0.5c1,1.1,1.9,2.6,2.5,3.7l-1.4,0.6h2.3
				c0.4-1.2,0.8-2.8,1-4.4l2.5,0.8C421.5,100.9,420.7,102.2,419.9,103.3z M422.4,98.7h-9v-1.2h4c-0.5-0.9-1-1.8-1.6-2.6l0.7-0.7
				c1.1,0.6,2.2,1.5,3.1,2.5l-1,0.8h3.8V98.7z M414,105.9h8v7.1h-2.4v-1.3h-3.3v1.4H414V105.9z M416.4,110.5h3.3v-3.4h-3.3V110.5z
				 M425.9,109.6l0.2-1.1c1.7,0.3,2.1,0,1.9-1.8c-0.1-1.2-0.7-3-1.6-4.6c0.5-1.9,0.8-3.5,1-5.1h-1.9v16.2h-2.4v-18l2.4,0.6h1.7
				l0.6-0.5l2.3,1c-0.9,2.6-1.7,4.3-2.7,5.9c1.5,1.6,2.7,3.3,2.9,5.1C430.7,110.6,428,110.9,425.9,109.6z"/>
			<path d="M433.3,106l-0.6-0.8c2.2-2.3,4-5.5,5-9.5l2.8,1C439.1,100.3,436.4,104.1,433.3,106z M449.8,111.6l-2.7,1.5
				c-0.3-0.9-0.8-1.9-1.3-2.9c-3.1,1.1-7.4,2-10.9,2.3l-0.7-3c0.9,0,1.8,0,2.7,0c1.3-2.3,2.5-5.6,3.1-8.3l3,1.1
				c-1.1,2.4-2.8,5.2-4.4,7.1c2.4-0.1,4.8-0.3,6.6-0.5c-0.5-1-1-2-1.6-2.9l0.9-0.7C446.6,107.2,448.4,109.4,449.8,111.6z
				 M444.3,96.8h-3.1v-1.3h4.2c0.7,3.9,3.1,6.3,5.9,7.8l-2,2.7C446.5,104.1,444.8,100.5,444.3,96.8z"/>
			<path d="M470.3,106.5c-0.3-0.1-0.5-0.2-0.7-0.3v6.8h-2.3v-1.2h-3.4v1.2h-2.3v-6.8c-0.5,0.2-1.1,0.4-1.6,0.6l-0.4-1
				c2-0.9,3.6-2,4.8-3.3c-0.7-0.9-1.3-1.8-1.8-2.7c-0.5,0.6-1,1.2-1.6,1.7l-0.5-0.5v0.7h-1.9v2.2h2.2v1.2h-2.2v3.9
				c0.8-0.2,1.5-0.4,2-0.6l0.4,1c-1.4,1.1-5.4,2.7-7.6,3.3l-0.7-2.5l1-0.1v-6.5h2v6.2c0.2,0,0.5-0.1,0.7-0.1v-7.9h-2.6v-6.3h6.6v5.1
				c1-1.7,1.8-3.9,2.2-6.2l2.4,0.7c-0.2,0.5-0.4,1.1-0.6,1.6h2.5l0.5-0.4l2.3,1.1c-0.6,1.9-1.6,3.6-2.8,5.1c1.3,0.7,2.8,1.2,4.3,1.6
				L470.3,106.5z M456,100.5h2.3v-4H456V100.5z M468.8,105.9c-1.2-0.6-2.2-1.3-3.2-2.1c-1,0.8-2,1.5-3.3,2.1H468.8z M465.4,101.2
				c0.7-1,1.2-2.1,1.6-3.4h-3.1c-0.2,0.3-0.4,0.6-0.6,1C463.9,99.8,464.6,100.6,465.4,101.2z M467.3,107.1h-3.4v3.5h3.4V107.1z"/>
			<path d="M475,107.2c0.1,2.1,0,4.4-0.4,5.8l-2.1-0.8c0.7-1.3,1.3-3.1,1.6-5.1L475,107.2z M474.3,104.4c0.7-1,1.3-2.1,1.9-3.4
				c-1,0.4-1.9,0.6-2.8,0.9l-0.5-2.1c0.4,0,0.7,0,1.1,0c0.6-1.6,1.1-3.4,1.4-5.4l2.4,0.6c-0.7,1.7-1.7,3.5-2.6,4.8l1.6-0.1
				c0.3-0.7,0.6-1.5,0.9-2.2l2.2,1c-1.1,2.2-2.7,4.4-4.2,6c0.7,0,1.4-0.1,2.1-0.2c-0.2-0.4-0.3-0.9-0.5-1.2l0.8-0.5
				c0.7,0.8,1.5,1.9,2,2.9v-8.8h3.5c0.1-0.7,0.2-1.4,0.3-2.4l2.6,0.4c-0.5,0.8-1,1.4-1.5,1.9h5.1v8.8h-4.9c0.9,0.5,1.8,1.2,2.5,1.9
				l-1.6,1.6c-0.9-1.3-1.7-2.4-2.4-3.2l0.2-0.3h-3.8l0.1,0.3l-1.7,0.8c-0.1-0.5-0.3-0.9-0.4-1.4c-1.7,0.8-3.3,1.2-4.7,1.5l-0.5-2.2
				C473.3,104.5,473.8,104.5,474.3,104.4z M476.5,106.8c0.5,1.4,1.1,3.6,1.3,5l-2.1,0.3c0-1.3,0-3.7-0.2-5.2L476.5,106.8z
				 M480.4,107l1,0.2c0,1.8-0.2,3.5-0.8,4.9l-2-1c0.3-0.4,0.6-0.9,0.9-1.4l-1.4,0.6c-0.3-1.3-0.6-2.3-1-3.6l0.8-0.4
				c0.8,1.1,1.3,2,1.8,3C480,108.5,480.2,107.8,480.4,107z M488,108.7c0.8,2.9,0.4,3.8-1.1,3.9c-1.1,0.1-1.9,0.1-2.9,0
				c-1.9-0.1-2.2-0.6-2.2-2.5v-3.9h2.2v3.4c0,0.7,0.2,0.9,0.8,1c0.5,0,1,0,1.5,0c0.6-0.1,0.7-0.3,0.7-1.9H488z M482.2,97.8v1.7
				l0.1-0.2c0.3,0.1,0.6,0.2,0.9,0.4c0.2-0.6,0.4-1.2,0.5-1.9H482.2z M482.2,101.6c0.2-0.3,0.4-0.7,0.5-1c-0.2-0.1-0.4-0.3-0.5-0.4
				V101.6z M482.2,104.2h0.7l-0.3-0.6c0.8-0.5,1.5-1.1,2-1.8l-0.9-0.7c-0.3,0.4-0.6,0.7-0.9,1l-0.6-0.4L482.2,104.2L482.2,104.2z
				 M487.8,104.2V103l-0.8,1c-0.5-0.4-1-0.8-1.5-1.2c-0.7,0.7-1.5,1.1-2.2,1.5h4.5V104.2z M487.8,97.8h-3.6l1.1,0.3
				c-0.1,0.2-0.2,0.4-0.3,0.7h0.8l0.4-0.3l1.5,0.6c-0.3,1-0.7,1.9-1.1,2.5c0.4,0.3,0.9,0.5,1.2,0.8V97.8z M484.3,100.2
				c0.3,0.2,0.7,0.4,1,0.6c0.2-0.4,0.4-0.7,0.5-1.2h-1.2C484.5,99.9,484.4,100.1,484.3,100.2z M491.2,110.7l-1.9,0.8
				c-0.3-1.4-0.7-3-1.2-4.2l0.8-0.4C489.8,107.9,490.7,109.5,491.2,110.7z"/>
			<path d="M509.9,102c-0.1,4.8-0.1,7.2-0.3,8.8c-0.2,2.6-2.5,2.8-5.9,0.9l0.3-1c2.8,0.5,3.1,0.4,3.2-0.7c0.1-1.5,0.1-3.2,0.2-6.9
				h-10.1c-0.1,4.4-0.9,7.7-3.5,10l-0.8-0.6c1.6-3,1.7-6.5,1.7-11.5v-5.6H509v4.7h-11.7v0.9v0.8h12.6V102z M497.3,96.8v2.3h9.1v-2.3
				H497.3z M500.3,109.6v1.3h-2.4v-6.1h7.7v4.8C505.6,109.6,500.3,109.6,500.3,109.6z M500.3,106v2.4h3V106H500.3z"/>
		</g>
	</g>
</g>
</svg>
